<?xml version="1.0" encoding="UTF-8" standalone="no"?>
<!-- Created with Inkscape (http://www.inkscape.org/) -->

<svg
   width="247.29347mm"
   height="247.28209mm"
   viewBox="0 0 247.29347 247.28209"
   version="1.1"
   id="svg1"
   xml:space="preserve"
   xmlns="http://www.w3.org/2000/svg"
   xmlns:svg="http://www.w3.org/2000/svg"><defs
     id="defs1" /><g
     id="layer1"
     transform="translate(924.68265,-625.43301)"><ellipse
       style="opacity:1;fill:#f9f9f9;fill-opacity:0.915301;stroke:#000000;stroke-width:1.67553;stroke-dasharray:none;stroke-opacity:1"
       id="path28"
       cx="-801.03595"
       cy="749.07404"
       rx="106.13307"
       ry="109.76881" /><path
       style="fill:#16f2ba;stroke-width:5.88001"
       d="m -801.0302,625.43298 c -68.1826,0 -123.65252,55.45843 -123.65252,123.64103 0,68.1826 55.46992,123.64103 123.65252,123.64103 68.18259,0 123.64102,-55.45843 123.64102,-123.64103 0,-68.1826 -55.45843,-123.64103 -123.64102,-123.64103 z m 0,17.50223 c 58.7223,0 106.12732,47.4165 106.12732,106.1388 0,58.7223 -47.40502,106.13881 -106.12732,106.13881 -58.72231,0 -106.13881,-47.41651 -106.13881,-106.13881 0,-58.7223 47.4165,-106.1388 106.13881,-106.1388 z"
       id="circle23" /><path
       style="color:#000000;font-style:normal;font-variant:normal;font-weight:normal;font-stretch:normal;font-size:medium;line-height:normal;font-family:sans-serif;font-variant-ligatures:normal;font-variant-position:normal;font-variant-caps:normal;font-variant-numeric:normal;font-variant-alternates:normal;font-variant-east-asian:normal;font-feature-settings:normal;font-variation-settings:normal;text-indent:0;text-align:start;text-decoration-line:none;text-decoration-style:solid;text-decoration-color:#000000;letter-spacing:normal;word-spacing:normal;text-transform:none;writing-mode:lr-tb;direction:ltr;text-orientation:mixed;dominant-baseline:auto;baseline-shift:baseline;text-anchor:start;white-space:normal;shape-padding:0;shape-margin:0;inline-size:0;clip-rule:nonzero;display:inline;overflow:visible;visibility:visible;isolation:auto;mix-blend-mode:normal;color-interpolation:sRGB;color-interpolation-filters:linearRGB;solid-color:#000000;solid-opacity:1;vector-effect:none;fill:#000000;fill-opacity:1;fill-rule:nonzero;stroke:none;stroke-linecap:butt;stroke-linejoin:miter;stroke-miterlimit:4;stroke-dasharray:none;stroke-dashoffset:0;stroke-opacity:1;-inkscape-stroke:none;color-rendering:auto;image-rendering:auto;shape-rendering:auto;text-rendering:auto;enable-background:accumulate;stop-color:#000000"
       d="m -810.75211,851.77842 c -14.83457,-1.1168 -29.73335,-5.7317 -42.07469,-13.0325 -17.25204,-10.2058 -32.03601,-25.5808 -40.30551,-41.9167 -20.00735,-39.5234 -12.13917,-87.2702 19.49978,-118.3312 7.77332,-7.6313 14.87205,-12.8155 24.53589,-17.9186 4.02577,-2.1258 8.80813,-4.2074 9.66643,-4.2074 0.83632,0 1.17753,0.9906 0.42466,1.2328 -3.72624,1.1988 -13.1223,6.0707 -18.16407,9.4182 -15.97275,10.6051 -29.02422,25.7462 -36.59259,42.4513 -4.06334,8.9687 -7.0551,19.913 -8.26059,30.2184 -0.66341,5.6713 -0.66882,16.9943 -0.01,22.5467 2.01647,17.0146 8.02211,32.4979 18.04714,46.5279 15.54328,21.7528 40.04973,36.726 66.68277,40.7425 6.64316,1.0018 23.91095,1.0917 30.47309,0.1586 21.54082,-3.0629 39.03176,-11.3195 54.75279,-25.8459 5.61815,-5.1913 12.61554,-13.422 16.98932,-19.9838 13.13143,-19.7007 18.16731,-44.5562 14.06593,-69.4249 -4.21125,-25.5349 -18.37002,-48.5643 -39.5528,-64.3328 -4.60641,-3.429 -9.2333,-6.2456 -14.9726,-9.1144 -8.00688,-4.0023 -16.36594,-6.9574 -24.13383,-8.532 -4.44034,-0.9 -5.05497,-1.113 -5.79897,-2.0095 -0.41724,-0.5027 -0.33487,-0.5334 0.87619,-0.3266 11.406,1.9481 20.43097,4.9785 31.36584,10.532 24.6574,12.5227 41.82296,32.9134 50.08643,59.4967 10.56152,33.9763 4.975,64.8979 -16.77205,92.8341 -3.39818,4.3653 -12.88099,13.9875 -17.0274,17.2777 -13.87798,11.0123 -30.39548,17.9625 -48.89527,20.5739 -8.58702,1.2121 -17.19585,1.5459 -24.90509,0.9655 z m 2.37518,-8.1376 c -23.25616,-1.5569 -43.62727,-10.865 -60.42679,-27.6107 -7.24229,-7.2191 -12.00935,-13.6144 -16.32773,-21.9047 -2.88851,-5.5452 -5.95724,-13.7207 -7.257,-19.3335 -0.36732,-1.5863 -0.74977,-3.1514 -0.84987,-3.478 -0.10014,-0.3266 -0.0194,-0.5938 0.18016,-0.5938 0.19922,0 0.36215,0.2083 0.36215,0.4627 0,0.8547 3.97781,8.5012 5.91875,11.3776 3.34741,4.9607 10.27367,12.9296 11.23785,12.9296 0.25667,0 1.27646,-1.7108 2.28651,-3.8357 3.88592,-8.1751 8.42656,-13.4009 15.16672,-17.4553 3.30635,-1.9888 6.80949,-3.3193 12.77525,-4.8519 5.84639,-1.502 8.96718,-2.4531 11.27351,-3.4357 l 1.48453,-0.6325 -1.36474,-0.9886 c -1.45379,-1.0531 -2.706,-2.5579 -3.60012,-4.3264 -0.82205,-1.6259 -0.6943,-1.6445 1.00762,-0.1464 2.29184,2.0174 4.23621,2.841 7.1484,3.0278 5.27264,0.3384 7.1492,-1.3458 9.4456,-8.4774 1.42641,-4.4299 4.14568,-16.2023 6.13275,-26.5502 1.34386,-6.9984 0.98457,-9.2064 -2.01052,-12.3562 l -1.40518,-1.4777 1.69655,0.8523 c 2.86943,1.4415 4.58072,3.8589 4.58072,6.4708 0,0.6412 -0.52573,3.8908 -1.1682,7.2212 -0.64252,3.3305 -1.79409,9.4146 -2.55904,13.5202 -0.76493,4.1057 -1.91807,9.5143 -2.56253,12.0191 -0.64444,2.5047 -1.10728,4.6185 -1.02854,4.6972 0.56413,0.5642 3.51344,-11.7614 5.62376,-23.5025 0.77149,-4.2923 1.78588,-9.4987 2.25422,-11.5699 0.96862,-4.2836 0.86079,-5.2807 -0.86561,-8.0029 -1.38179,-2.1789 -3.83377,-4.0163 -8.28986,-6.2123 -2.084,-1.027 -4.51188,-2.4017 -5.39531,-3.0549 -2.34686,-1.7353 -4.48482,-4.6151 -6.42467,-8.654 -4.48304,-9.3338 -6.51297,-13.2666 -8.05513,-15.606 -0.92181,-1.3983 -1.64147,-2.577 -1.5992,-2.6193 0.20456,-0.2045 7.67728,1.6852 10.81289,2.7344 9.18595,3.0738 17.0145,8.0186 22.02074,13.9089 1.13603,1.3367 2.88762,3.2029 3.89239,4.1472 l 1.82689,1.7169 v 2.1088 c 0,2.1259 -0.84409,5.1603 -1.87179,6.7288 l -0.53502,0.8165 -0.90907,-0.7151 c -1.63729,-1.2879 -3.71958,-4.4422 -4.44747,-6.7373 -0.39114,-1.2333 -1.11285,-3.5187 -1.60378,-5.0786 -1.0625,-3.3762 -3.10717,-6.5263 -5.31696,-8.1914 -2.08703,-1.5726 -15.85401,-7.4525 -15.85401,-6.7712 0,0.9819 6.62156,5.0117 10.00971,6.0918 5.90421,1.8823 8.70553,5.0679 10.35002,11.7697 1.25769,5.1254 1.73742,6.2457 3.49107,8.152 l 1.42796,1.5524 -2.37519,-1.7987 c -2.43219,-1.8418 -3.90547,-2.5954 -8.65489,-4.427 -3.65896,-1.411 -5.63104,-3.054 -7.9951,-6.6607 -2.34315,-3.5749 -2.68456,-3.9892 -2.18256,-2.649 2.24512,5.9941 4.12527,7.9932 10.54178,11.2085 6.33438,3.1742 8.22092,5.1171 9.70823,9.9985 0.19604,0.6433 0.70611,-0.1967 1.33129,-2.1923 0.36327,-1.1595 0.43283,-1.2301 0.45205,-0.4584 0.0129,0.5016 -0.1995,1.8758 -0.4711,3.0538 -1.47195,6.3841 -1.37556,13.3054 0.32528,23.3552 1.09697,6.4819 1.65946,11.4802 2.70907,24.0735 1.32951,15.9513 2.54221,21.8161 5.93102,28.6831 1.80359,3.6547 5.64696,9.295 6.18461,9.0761 0.11531,-0.047 0.29712,-5.1621 0.40414,-11.367 0.34033,-19.7399 1.24048,-26.7403 4.45026,-34.6093 0.33887,-0.8308 0.86458,-0.7572 4.24099,0.5937 1.63238,0.6531 3.44542,1.2829 4.02899,1.3996 1.25065,0.2502 1.30864,0.478 0.34299,1.3472 -1.06605,0.9596 -2.675,3.4 -2.675,4.0574 0,0.3159 0.91592,1.5534 2.03539,2.7501 10.97842,11.736 14.78157,30.0506 10.30201,49.6108 -0.27213,1.1883 -0.42831,2.2271 -0.34704,2.3084 0.0813,0.081 2.87538,-0.7553 6.20911,-1.8591 25.19857,-8.343 41.5913,-21.1349 51.49926,-40.1871 1.04285,-2.0053 1.89503,-3.4559 1.89372,-3.2235 -0.008,1.2855 -1.54712,6.5067 -3.07636,10.4309 -8.6251,22.1328 -24.28952,39.0255 -46.2137,49.8373 -11.51234,5.6772 -22.68053,8.6586 -35.70522,9.5314 -5.66999,0.38 -7.65152,0.3772 -13.57249,-0.019 z m 8.8715,-7.0036 c 1.36551,-3.0876 2.24983,-7.3867 2.07763,-10.1002 -0.27736,-4.3714 -1.96538,-6.9769 -7.33963,-11.3291 -9.09158,-7.3627 -15.00179,-16.8589 -17.12898,-27.5222 -0.77553,-3.8876 -0.9253,-11.8759 -0.22267,-11.8759 0.18657,0 0.33927,0.3243 0.33927,0.7205 0,1.2229 2.32406,7.7547 4.02954,11.3251 4.42733,9.2685 10.60995,16.7906 18.78528,22.8551 5.26395,3.9048 7.04465,6.4797 7.04465,10.1865 0,0.8439 0.12648,1.3892 0.28101,1.2119 0.15453,-0.1772 0.95403,-2.2309 1.77664,-4.5637 1.58439,-4.493 6.11391,-13.9546 7.6346,-15.9477 l 0.90612,-1.1875 -0.2101,5.2429 c -0.12324,3.0756 -0.085,5.1095 0.0925,4.9201 1.15173,-1.2295 5.34123,-7.0474 5.97458,-8.2968 1.30314,-2.5709 1.8676,-5.0326 1.8676,-8.1453 0,-5.2293 -1.1356,-10.0822 -4.56516,-19.5087 -0.43595,-1.1981 1.79555,1.5771 3.08466,3.8364 2.75537,4.8289 4.59068,11.0107 5.28046,17.7857 0.21368,2.0986 0.45647,3.6116 0.53955,3.3624 0.0831,-0.2493 -0.0253,-2.3312 -0.24131,-4.6266 -0.88693,-9.4335 -3.7227,-16.9878 -9.04307,-24.0903 -0.97858,-1.3064 -2.19418,-2.7569 -2.70135,-3.2235 l -0.92213,-0.8482 0.16782,2.5448 c 0.13171,1.9976 0.4594,3.2016 1.52366,5.5986 2.94149,6.6253 4.07039,11.5003 3.71882,16.0594 -0.3374,4.3759 -0.74142,4.4399 -0.7733,0.1225 -0.0241,-3.2927 -0.18663,-4.4855 -0.95567,-7.0205 -0.97501,-3.2141 -3.84903,-9.6704 -4.30477,-9.6704 -0.49886,0 -0.73689,3.1114 -0.43742,5.7179 0.164,1.4274 0.28918,4.733 0.27819,7.3457 -0.0223,5.3287 -0.61458,8.1228 -2.65939,12.5485 -1.63809,3.5455 -4.4537,7.5869 -5.46194,7.84 -0.59623,0.1496 -1.4829,-0.1522 -3.13145,-1.0658 -6.65063,-3.6857 -13.05683,-9.1515 -17.27825,-14.742 -3.91319,-5.1823 -7.0096,-12.4801 -8.11465,-19.1251 -0.88605,-5.3281 -1.20717,-6.6783 -1.53953,-6.4728 -0.47364,0.2927 -2.14392,3.7472 -2.94328,6.0874 -0.98023,2.8697 -1.7745,6.9441 -1.7745,9.1027 0,4.78 1.70577,10.6126 4.57374,15.6393 0.8431,1.4777 1.46049,2.7591 1.372,2.8476 -0.0885,0.088 -1.00623,-0.5613 -2.03941,-1.444 -2.28905,-1.9555 -4.68305,-5.2399 -5.7496,-7.888 -2.53335,-6.2899 -1.73794,-15.3699 1.99809,-22.8087 0.87125,-1.7348 1.52208,-3.2162 1.44629,-3.292 -0.18604,-0.186 -7.80816,2.9622 -10.7115,4.4243 -7.2473,3.6497 -15.79618,11.0818 -19.94406,17.3387 -3.41424,5.1502 -7.25193,13.9573 -7.25193,16.6424 0,1.0709 0.19022,1.3011 2.08848,2.528 1.14866,0.7425 2.19459,1.3499 2.32427,1.3499 0.25031,0 2.2088,-1.4186 3.9004,-2.8252 0.55984,-0.4656 0.90872,-0.9566 0.77525,-1.0912 -0.13347,-0.1347 -2.15664,-0.1102 -4.49594,0.054 -2.33929,0.1645 -4.25324,0.2495 -4.25321,0.1886 1.1e-4,-0.1659 2.97359,-4.0426 4.72998,-6.1667 7.02041,-8.4901 13.74162,-15.0976 19.60251,-19.2709 l 1.03194,-0.7349 0.17981,7.034 c 0.14758,5.774 0.33522,7.7652 1.04753,11.1167 2.05395,9.6641 6.07906,18.4763 12.18961,26.6869 2.42523,3.2587 8.00875,9.5869 8.24784,9.3478 0.0685,-0.069 -0.41765,-2.0992 -1.0803,-4.5127 -0.66264,-2.4135 -1.43079,-5.3806 -1.70702,-6.5937 -0.27618,-1.213 -0.58676,-2.5109 -0.69015,-2.8841 -0.27866,-1.0061 7.417,6.7096 9.72532,9.7507 3.18384,4.1945 4.93192,7.748 6.11579,12.432 l 0.37526,1.4847 0.8544,-1.2573 c 0.46993,-0.6916 1.23074,-2.1084 1.69072,-3.1484 z m 8.92518,-2.6978 c 6.18682,-3.0083 10.82299,-10.5605 10.8631,-17.6958 l 0.0112,-2.1499 -4.68574,6.3913 c -6.10934,8.333 -9.28677,12.784 -10.05672,14.0874 l -0.62264,1.054 0.98114,-0.2289 c 0.53961,-0.126 2.11858,-0.7821 3.50878,-1.4581 z m -70.04092,-43.6882 c 4.62059,-7.5651 10.55132,-13.8457 17.58904,-18.6269 2.77095,-1.8825 2.27728,-2.1093 -0.7251,-0.3332 -6.24238,3.6928 -16.12763,14.6522 -18.92835,20.9851 -0.97306,2.2003 -1.08462,3.1433 -0.19951,1.6868 0.34016,-0.5598 1.35899,-2.2302 2.26395,-3.7119 z m 56.34629,-84.0852 c -0.34851,-2.2228 -1.91858,-5.2515 -4.22159,-8.1435 -1.15178,-1.4463 -2.21931,-2.6296 -2.37229,-2.6296 -0.28277,0 1.9614,6.8353 2.69287,8.2021 0.54472,1.0177 3.37414,4.0131 3.79085,4.0131 0.20486,0 0.2479,-0.5636 0.11019,-1.4421 z m 38.14231,57.4401 c -0.46658,-0.1482 -1.75552,-0.8222 -2.86437,-1.4978 -1.10886,-0.6756 -4.34937,-2.1398 -7.20115,-3.2537 -11.68666,-4.5648 -18.74829,-7.8623 -22.05086,-10.297 -5.42973,-4.0027 -8.96294,-10.8885 -8.9115,-17.3673 l 0.0188,-2.3752 0.62281,2.9536 c 1.65493,7.8481 6.05816,13.1005 14.93991,17.8213 2.93209,1.5584 9.45979,4.234 9.93964,4.0741 0.17875,-0.06 -0.64901,-0.6811 -1.83942,-1.3811 -3.26233,-1.9184 -9.2991,-6.5215 -12.27695,-9.3612 -6.10841,-5.8251 -8.85854,-11.171 -9.29081,-18.06 -0.30088,-4.7953 -0.0194,-5.0984 1.69296,-1.8208 1.69193,3.2391 4.57403,6.4044 9.05796,9.9483 4.73264,3.7404 11.49482,10.7363 16.01124,16.5646 6.3058,8.1375 11.32204,12.3441 14.71977,12.3441 1.27456,0 4.11675,-1.3876 4.66753,-2.2788 0.10513,-0.1701 -1.09419,-0.557 -2.66513,-0.8599 -3.62301,-0.6984 -6.6068,-2.1235 -8.98157,-4.2896 -2.04898,-1.869 -1.91519,-2.0769 0.67863,-1.0545 2.40524,0.9481 4.2257,0.8949 5.27475,-0.1542 0.45812,-0.4581 0.83287,-1.1069 0.83287,-1.4418 0,-0.3349 -1.29787,-1.8694 -2.88416,-3.41 -1.58627,-1.5405 -2.88415,-2.953 -2.88415,-3.1389 0,-0.1859 0.46569,-0.3378 1.03478,-0.3378 1.27934,0 2.90083,-0.8082 3.36621,-1.6778 1.32084,-2.468 -1.08856,-5.6423 -9.89506,-13.0364 -3.23379,-2.7151 -4.58367,-5.3255 -5.50212,-10.6401 -0.89943,-5.2045 -3.03109,-8.4386 -6.76938,-10.2701 -2.68212,-1.3141 -5.45262,-1.8277 -7.67784,-1.4233 -0.93585,0.1702 -1.70155,0.1983 -1.70155,0.063 0,-0.3457 3.47565,-1.8552 6.10762,-2.6527 4.92705,-1.4929 4.78638,-1.422 2.42245,-1.2211 -4.16163,0.3538 -8.60039,2.2943 -12.4841,5.4576 -1.02977,0.8388 -1.93723,1.4601 -2.01657,1.3808 -0.0794,-0.079 0.0646,-0.7407 0.32005,-1.4696 1.20447,-3.438 0.96027,-7.4029 -0.82634,-13.4169 -1.22036,-4.1079 -5.25037,-12.2819 -6.75257,-13.6962 -0.59466,-0.5598 -1.67925,-2.0382 -2.4102,-3.2853 -2.07563,-3.5411 -8.17283,-8.8705 -16.4698,-14.3958 -4.74996,-3.1632 -8.06928,-6.5725 -9.75456,-10.0191 -2.02067,-4.1326 -2.40098,-6.1339 -2.40908,-12.6779 -0.008,-6.0225 0.25231,-8.31541 0.94134,-8.30993 0.22479,0.002 1.16586,2.17763 2.09117,4.83523 3.45294,9.9169 6.98102,14.9356 13.41699,19.0855 1.21304,0.7821 5.56471,3.2131 9.67038,5.4021 8.79479,4.689 11.99978,6.7755 15.72859,10.2397 2.03633,1.8918 3.01298,3.102 3.75532,4.6535 0.55178,1.1532 1.62664,2.7036 2.38854,3.4453 0.85591,0.8332 1.52208,1.8705 1.74331,2.7145 0.19692,0.7513 0.71477,1.9004 1.15079,2.5536 1.06318,1.5927 2.88391,8.0611 3.12792,11.1125 0.19145,2.3939 0.7774,3.4808 0.7774,1.442 0,-1.2666 0.35045,-1.2937 1.09998,-0.085 0.72524,1.1697 0.75497,0.5751 0.0718,-1.4371 -0.28865,-0.8501 -0.4323,-1.6952 -0.31928,-1.8781 0.11301,-0.1828 1.15077,-0.3172 2.30613,-0.2986 1.46842,0.024 1.84536,0.108 1.2524,0.2804 -0.46657,0.1355 -1.34454,0.1842 -1.95104,0.1081 -1.3307,-0.167 -1.39527,0.2025 -0.22715,1.2999 0.6499,0.6105 1.25641,0.8226 2.3529,0.8226 1.86739,0 3.14243,-1.1293 4.78881,-4.2414 l 1.16676,-2.2055 -0.21363,1.6906 c -0.11748,0.9299 -0.58065,2.6658 -1.02927,3.8577 -0.98321,2.6121 -1.02373,3.2206 -0.13894,2.0862 1.04041,-1.334 2.34902,-4.8915 2.58788,-7.0353 0.1199,-1.0761 0.45488,-2.4909 0.74438,-3.1441 0.38003,-0.8574 0.54579,-2.5083 0.59616,-5.9379 0.0786,-5.3508 -0.22286,-7.3277 -1.34405,-8.8148 -0.42518,-0.5639 -0.93578,-1.5002 -1.13464,-2.0807 -0.97889,-2.8574 -3.70207,-5.9748 -10.69726,-12.2459 -7.27975,-6.5263 -9.50668,-9.1945 -12.32413,-14.7664 -1.6,-3.1642 -2.96908,-7.5387 -2.79409,-8.9278 0.0948,-0.7521 0.37573,-0.512 2.48204,2.1213 6.00006,7.5012 10.66351,11.9865 19.51044,18.7651 8.78361,6.7301 11.37226,9.1576 14.64615,13.7339 1.55752,2.1772 2.3997,3.8371 2.15099,4.2395 -0.10796,0.1746 0.18192,0.8954 0.64405,1.6018 0.75665,1.1565 0.85628,1.7232 1.00126,5.6953 0.21427,5.8692 -0.10349,7.7361 -2.49993,14.6881 -1.19621,3.4703 -2.03074,6.4642 -2.03074,7.2855 0,2.0888 1.08293,3.9439 4.29283,7.3538 2.83273,3.0092 2.88998,3.1032 2.52627,4.1465 -0.60201,1.7269 -0.44224,2.5148 0.81544,4.0201 1.29463,1.5496 1.458,2.0359 0.68398,2.0359 -0.27701,0 -0.97353,0.4199 -1.54786,0.9331 -0.77466,0.6922 -1.09415,1.3273 -1.23756,2.46 -0.10631,0.8398 -0.42242,1.7903 -0.7025,2.1121 -1.12558,1.2937 -0.0697,7.448 1.97141,11.4916 1.36044,2.695 4.15509,5.4656 6.32406,6.2697 0.89871,0.3331 1.6936,0.6509 1.76643,0.7062 0.0729,0.055 -0.41448,0.7058 -1.08283,1.4456 -1.75738,1.9452 -2.14991,3.5238 -1.46344,5.8852 0.30117,1.0361 0.54766,2.0461 0.54766,2.2444 0,0.1984 -0.67031,1.1154 -1.4896,2.0378 -0.81928,0.9225 -1.77039,2.1526 -2.11358,2.7336 -1.53649,2.601 -6.83554,4.423 -9.96929,3.4276 z m 10.69493,-15.0664 c 1.63323,-1.9317 1.87959,-2.3815 1.43934,-2.6279 -0.29212,-0.1635 -1.3709,-0.9813 -2.39722,-1.8173 l -1.86607,-1.5201 -0.55019,0.8397 c -0.64272,0.9809 -1.06287,1.0319 -2.51834,0.3059 -1.442,-0.7194 -2.09438,-0.5288 -2.89753,0.8463 l -0.67667,1.1587 0.8198,0.5368 c 0.45094,0.2953 1.96865,1.4941 3.37279,2.6641 1.40414,1.17 2.72186,2.0862 2.92828,2.0359 0.20645,-0.051 1.26203,-1.1402 2.34581,-2.4221 z m -6.10216,-12.0052 c -1.32188,-3.4099 -2.00469,-9.3639 -1.56209,-13.6215 0.29036,-2.7935 0.48011,-3.4116 1.53449,-4.9996 1.51235,-2.2778 1.52002,-3.1836 0.0406,-4.7965 l -1.16259,-1.2674 -0.69484,1.6194 c -1.28731,3.0002 -1.83455,6.7679 -1.63434,11.2522 0.10055,2.2517 0.42877,5.0102 0.72936,6.1299 0.54102,2.0153 2.43871,6.2773 2.79499,6.2773 0.10155,0 0.081,-0.2672 -0.0459,-0.5938 z m -5.62886,-13.1154 c 0.21809,-1.6614 0.69311,-3.6021 1.05561,-4.3127 0.73289,-1.4366 0.78968,-3.0228 0.1991,-5.5603 l -0.3949,-1.6966 -0.75,1.6966 c -0.41254,0.9331 -1.04232,2.0783 -1.39958,2.5448 -0.6183,0.8075 -0.62791,1.0524 -0.19963,5.0897 0.24743,2.3328 0.46347,4.6995 0.48011,5.2593 0.0535,1.8014 0.58535,0.2096 1.00935,-3.0208 z m -6.07579,-0.7615 c -0.38949,-2.212 -0.78913,-4.3865 -0.8881,-4.8321 -0.099,-0.4457 -1.49189,-2.174 -3.09537,-3.8408 l -2.91542,-3.0306 0.23049,1.9746 c 0.37215,3.1875 0.82493,4.3999 2.16661,5.801 0.69552,0.7264 1.69482,2.1476 2.22063,3.1582 0.52579,1.0106 1.3377,2.578 1.8042,3.483 0.46652,0.905 0.92398,1.5697 1.01664,1.477 0.0926,-0.093 -0.15017,-1.9783 -0.53973,-4.1903 z m -8.84531,4.4313 c -1.47075,-2.2346 -2.29232,-2.6156 -6.17884,-2.8655 -4.84613,-0.3116 -6.69272,-1.3243 -8.33269,-4.5697 -0.85975,-1.7014 -2.24842,-3.0347 -3.86343,-3.7093 -0.68706,-0.287 -1.33381,-0.6587 -1.43721,-0.826 -0.10337,-0.1674 1.22219,-0.395 2.94577,-0.5058 1.72357,-0.1109 4.4735,-0.3011 6.11093,-0.4226 4.5369,-0.3366 6.57841,0.6977 8.36212,4.2366 0.84827,1.683 3.4668,9.2326 3.33716,9.6215 -0.0576,0.1733 -0.48245,-0.2583 -0.94381,-0.9592 z m -11.86246,-7.2582 c -0.29153,-0.5447 -0.29276,-0.8469 -0.005,-1.1937 0.32558,-0.3923 0.60048,-0.3883 1.77304,0.025 1.5109,0.5331 1.81488,0.4587 1.49818,-0.3665 -0.45076,-1.1747 -4.44188,-2.0652 -4.82154,-1.0758 -0.2158,0.5624 0.40366,2.2368 1.12051,3.0289 0.69179,0.7645 0.93999,0.5258 0.43483,-0.4182 z m -1.03162,6.5672 c -0.77661,-0.4824 -2.36545,-2.5258 -2.36545,-3.0422 0,-0.1153 0.5522,0.2753 1.22713,0.8679 0.67491,0.5926 1.73721,1.3207 2.36065,1.6179 1.14916,0.548 1.25725,1.1149 0.20951,1.0984 -0.31558,-0.01 -0.95988,-0.2489 -1.43179,-0.542 z m 31.59039,-19.0052 c -0.98684,-1.2546 -0.89382,-1.7837 0.68196,-3.8799 1.77568,-2.3621 2.44219,-3.6731 3.32694,-6.5439 1.07915,-3.5018 0.85426,-4.1153 -0.43013,-1.1735 -1.06351,2.4359 -3.51475,6.2461 -3.82118,5.9397 -0.13795,-0.138 0.39261,-1.9254 2.47103,-8.3252 0.62695,-1.9304 1.13989,-4.0188 1.13989,-4.6408 0,-0.8925 0.26837,-1.3542 1.27243,-2.1897 1.3841,-1.1516 5.4418,-3.2453 6.98854,-3.6059 l 0.96576,-0.2251 -0.8776,1.3902 c -1.46602,2.3223 -3.13811,6.76 -4.43236,11.7632 -0.67584,2.6127 -1.73844,5.8192 -2.36132,7.1256 -1.07976,2.2645 -3.31898,5.2593 -3.93245,5.2593 -0.15852,0 -0.6047,-0.4023 -0.99149,-0.894 z m -64.60702,-54.64 c -0.48504,-0.4851 -0.15517,-0.7218 1.72483,-1.2381 5.33658,-1.4654 13.75985,-2.5598 21.87293,-2.842 4.62568,-0.1608 6.13025,-0.1092 6.53176,0.224 0.28694,0.2381 0.52167,0.5469 0.52167,0.6862 0,0.1393 -2.86294,0.3341 -6.36211,0.4329 -6.87654,0.194 -12.59648,0.8469 -18.74697,2.1396 -4.07838,0.8572 -5.16518,0.9743 -5.5421,0.5974 z"
       id="path23" /></g></svg>
