<?xml version="1.0" encoding="UTF-8" standalone="no"?>
<!-- Created with Inkscape (http://www.inkscape.org/) -->

<svg
   width="338.66666mm"
   height="169.33333mm"
   viewBox="0 0 338.66666 169.33333"
   version="1.1"
   id="svg1"
   xml:space="preserve"
   xmlns:xlink="http://www.w3.org/1999/xlink"
   xmlns="http://www.w3.org/2000/svg"
   xmlns:svg="http://www.w3.org/2000/svg"><defs
     id="defs1"><linearGradient
       id="linearGradient179"><stop
         style="stop-color:#f59f13;stop-opacity:1;"
         offset="0.29067886"
         id="stop180" /><stop
         style="stop-color:#ff291a;stop-opacity:1;"
         offset="0.96222901"
         id="stop182" /><stop
         style="stop-color:#b01f2c;stop-opacity:1;"
         offset="1"
         id="stop181" /></linearGradient><linearGradient
       id="linearGradient177"><stop
         style="stop-color:#b01f2c;stop-opacity:1;"
         offset="0"
         id="stop177" /><stop
         style="stop-color:#ff291a;stop-opacity:1;"
         offset="0.72778267"
         id="stop179" /><stop
         style="stop-color:#f59f13;stop-opacity:1;"
         offset="1"
         id="stop178" /></linearGradient><linearGradient
       id="linearGradient170"><stop
         style="stop-color:#ff291a;stop-opacity:1;"
         offset="0"
         id="stop171" /><stop
         style="stop-color:#f59f13;stop-opacity:1;"
         offset="1"
         id="stop172" /></linearGradient><clipPath
       clipPathUnits="userSpaceOnUse"
       id="clipPath5"><rect
         style="opacity:0.221802;fill:#00ffff;fill-rule:evenodd;stroke-width:0.964999"
         id="rect6"
         width="106.38737"
         height="25.17663"
         x="52.951923"
         y="803.26874" /></clipPath><linearGradient
       xlink:href="#linearGradient170"
       id="linearGradient172"
       x1="49.751789"
       y1="1048.3859"
       x2="70.596176"
       y2="1048.3859"
       gradientUnits="userSpaceOnUse"
       gradientTransform="translate(-115.21938,954.3435)" /><linearGradient
       xlink:href="#linearGradient177"
       id="linearGradient178"
       x1="-63.945667"
       y1="1009.3207"
       x2="141.99808"
       y2="1009.3207"
       gradientUnits="userSpaceOnUse"
       gradientTransform="translate(-3.3576575e-6,-8.0800784e-5)" /><linearGradient
       xlink:href="#linearGradient179"
       id="linearGradient181"
       x1="143.21638"
       y1="1004.236"
       x2="154.15726"
       y2="1004.236"
       gradientUnits="userSpaceOnUse"
       gradientTransform="translate(-3.3576575e-6,-8.0800784e-5)" /></defs><g
     id="layer1"
     transform="translate(124.22758,-957.95868)"><rect
       style="fill:#ffeef0;fill-opacity:1;fill-rule:evenodd;stroke-width:0.964999"
       id="rect141"
       width="338.66666"
       height="169.33333"
       x="-124.22758"
       y="957.95868" /><rect
       style="fill:#ffffff;fill-opacity:1;fill-rule:evenodd;stroke:none;stroke-width:2.61197;stroke-opacity:1"
       id="rect175"
       width="297.38089"
       height="128.1937"
       x="-103.5705"
       y="978.47876" /><path
       style="fill:none;fill-opacity:1;fill-rule:evenodd;stroke:#b01f2c;stroke-width:0.965;stroke-linecap:butt;stroke-linejoin:miter;stroke-dasharray:none;stroke-opacity:1"
       d="M -103.5705,957.95869 V 1127.292"
       id="path141" /><path
       style="fill:none;fill-opacity:1;fill-rule:evenodd;stroke:#b01f2c;stroke-width:0.965;stroke-linecap:butt;stroke-linejoin:miter;stroke-dasharray:none;stroke-opacity:1"
       d="M 193.81037,957.95869 V 1127.292"
       id="path142" /><path
       style="fill:none;fill-opacity:1;fill-rule:evenodd;stroke:#b01f2c;stroke-width:1.36472;stroke-linecap:butt;stroke-linejoin:miter;stroke-dasharray:none;stroke-opacity:1"
       d="M 214.4391,978.56999 H -124.22755"
       id="path143" /><path
       style="fill:none;fill-opacity:1;fill-rule:evenodd;stroke:#b01f2c;stroke-width:1.36472;stroke-linecap:butt;stroke-linejoin:miter;stroke-dasharray:none;stroke-opacity:1"
       d="M 214.4391,1106.6725 H -124.22755"
       id="path144" /><path
       style="fill:#ff291a;fill-opacity:1"
       d="m 3.6130013,834.73352 c -6.270423,-3.58305 -9.253058,-5.32114 -9.328262,-5.43592 -0.103595,-0.1581 -0.110552,-1.15017 -0.110552,-15.76454 0,-14.29585 0.0088,-15.60918 0.105041,-15.75613 0.06663,-0.10169 1.812866,-1.13661 4.77556596,-2.83027 3.75635504,-2.14735 4.71505104,-2.66961 4.89800704,-2.66821 0.179377,10e-4 1.189887,0.5508 4.77864,2.59822 2.7450067,1.56605 4.6344207,2.68291 4.7609637,2.81428 l 0.209805,0.2178 v 9.74882 c 0,5.36185 0.01112,9.74882 0.02471,9.74882 0.01359,0 1.720273,-0.96917 3.792633,-2.15371 l 3.767927,-2.15371 0.03228,-5.06036 c 0.02753,-4.31564 0.0463,-5.08152 0.127563,-5.20411 0.05241,-0.0791 2.187579,-1.34149 4.744826,-2.80539 4.027285,-2.30543 4.684098,-2.66136 4.907761,-2.65952 0.219906,0.002 0.933545,0.38826 4.809381,2.60445 2.503138,1.43129 4.638309,2.68606 4.744825,2.78838 l 0.193666,0.18603 v 5.41622 5.41621 l -0.14214,0.1513 c -0.07818,0.0832 -2.102993,1.26934 -4.499592,2.63584 l -4.357453,2.48453 -0.01929,5.04676 c -0.01885,4.93102 -0.02225,5.05069 -0.148399,5.21818 -0.176547,0.23441 -18.445475,10.68332 -18.678676,10.68327 -0.108885,-3e-5 -3.5374329,-1.9234 -9.3892259,-5.26724 z m 8.6533047,-1.06752 -0.01659,-4.33358 -4.3574927,-2.44627 c -2.396621,-1.34545 -4.422855,-2.51983 -4.502742,-2.60973 l -0.14525,-0.16347 v -10.18269 -10.1827 l -3.72184504,-2.12766 c -2.04701396,-1.17021 -3.76102496,-2.13705 -3.80891196,-2.14855 -0.07289,-0.0175 -0.08442,2.34583 -0.07079,14.51793 l 0.01628,14.53883 8.263097,4.72982 c 4.544704,2.60141 8.2850887,4.73248 8.3119677,4.73574 0.02688,0.003 0.0414,-1.9442 0.03228,-4.32767 z m 9.795835,-0.40887 c 4.509198,-2.58071 8.220539,-4.71351 8.247424,-4.73954 0.02688,-0.026 0.04141,-1.96909 0.03228,-4.31792 l -0.0166,-4.27059 -8.295376,4.70098 -8.295375,4.70098 -0.01659,4.34135 c -0.01325,3.46542 -2.22e-4,4.33485 0.06455,4.30915 0.04463,-0.0177 3.770495,-2.14369 8.279693,-4.72441 z M 21.04902,823.5333 c 4.39181,-2.4886 8.111463,-4.59764 8.265895,-4.68675 0.154432,-0.0891 0.256107,-0.18627 0.225944,-0.21589 -0.03016,-0.0296 -1.728757,-1.01031 -3.774654,-2.1793 l -3.719813,-2.12544 -8.275368,4.72872 c -4.5514517,2.60079 -8.2704407,4.75366 -8.2644187,4.78414 0.01359,0.0688 7.3565687,4.2114 7.4729837,4.21596 0.04638,0.002 3.677621,-2.03283 8.069431,-4.52144 z m -12.5672337,-3.11619 3.7679267,-2.15372 0.01636,-9.40171 c 0.01089,-6.26216 -0.0053,-9.40171 -0.04848,-9.40171 -0.03566,0 -1.7497,0.96266 -3.8089867,2.13923 l -3.744157,2.13924 v 9.41619 c 0,5.17891 0.01112,9.41619 0.02471,9.41619 0.01359,0 1.720273,-0.96917 3.792633,-2.15371 z M 30.228868,808.76363 c -0.413856,-0.2809 -7.400318,-4.24721 -7.440478,-4.22406 -0.02663,0.0153 -0.04842,1.9395 -0.04842,4.2759 v 4.24799 l 3.792633,2.16679 3.792632,2.16679 0.0175,-4.27212 c 0.01734,-4.23415 0.01633,-4.27292 -0.113869,-4.36129 z m 5.519028,6.41341 c 1.917297,-1.092 3.522516,-2.01881 3.567154,-2.05957 0.06393,-0.0584 0.07764,-0.97936 0.06455,-4.33922 l -0.0166,-4.26509 -3.744216,2.14002 -3.744216,2.14002 -0.0166,4.31214 -0.0166,4.31215 0.210265,-0.1275 c 0.115645,-0.0701 1.778961,-1.02095 3.696258,-2.11295 z m -0.806943,-9.79322 c 2.006061,-1.148 3.644555,-2.11532 3.641098,-2.14959 -0.0035,-0.0343 -1.688354,-1.0255 -3.744216,-2.20272 l -3.737931,-2.14041 -0.193666,0.11036 c -5.042831,2.87372 -7.387966,4.22788 -7.363767,4.25208 0.01669,0.0167 1.723219,0.99764 3.792281,2.17988 2.731726,1.56088 3.788888,2.13422 3.860374,2.0936 0.05415,-0.0308 1.739767,-0.9952 3.745827,-2.1432 z M 7.6766353,800.35923 c 2.053622,-1.17416 3.7554867,-2.15589 3.7819227,-2.18162 0.04284,-0.0417 -7.2769117,-4.27292 -7.4756957,-4.32137 -0.125079,-0.0305 -7.594917,4.26048 -7.529919,4.32548 0.04167,0.0417 7.417021,4.291 7.479476,4.30932 0.0057,0.002 1.690595,-0.95764 3.744216,-2.13181 z m 65.5599527,28.47314 c -1.94486,-0.27257 -3.641381,-1.14186 -4.972138,-2.54771 -1.196828,-1.26437 -2.000804,-2.87462 -2.31442,-4.63546 -0.143778,-0.80727 -0.140258,-2.26955 0.0075,-3.11309 0.63197,-3.60802 3.208942,-6.3305 6.701003,-7.07937 0.931926,-0.19985 2.562234,-0.2014 3.287922,-0.003 1.634651,0.44663 2.900345,1.27375 3.679626,2.40458 0.104984,0.15235 0.109728,0.1109 0.112972,-0.98683 l 0.0034,-1.14586 h 1.968941 1.968941 v 8.35993 8.35993 h -1.968941 -1.968941 v -1.09744 c 0,-0.6036 -0.02179,-1.0958 -0.04842,-1.09379 -0.02663,0.002 -0.176503,0.17948 -0.333054,0.39439 -0.646877,0.88799 -1.929556,1.68025 -3.330467,2.05709 -0.585442,0.15748 -2.088174,0.22565 -2.793908,0.12675 z m 2.775537,-3.54552 c 2.299208,-0.58804 3.851731,-2.88645 3.709657,-5.49191 -0.133087,-2.44066 -1.582985,-4.33497 -3.759587,-4.91196 -0.731851,-0.194 -1.811748,-0.1939 -2.513917,2.3e-4 -1.411395,0.39021 -2.456209,1.25077 -3.102593,2.55545 -0.387021,0.78118 -0.54944,1.4379 -0.590737,2.38856 -0.03805,0.87599 0.06705,1.59544 0.347149,2.37641 0.617523,1.72174 2.062914,2.92441 3.861111,3.21274 0.480434,0.077 1.491099,0.0131 2.048917,-0.12952 z m 29.451165,3.547 c -2.87239,-0.40559 -5.24002,-2.12968 -6.517496,-4.74597 -0.623385,-1.27671 -0.890506,-2.46486 -0.892581,-3.97016 -0.0016,-1.16379 0.110539,-1.89358 0.444233,-2.89091 0.465118,-1.39013 1.115466,-2.45186 2.128264,-3.4745 1.20172,-1.21342 2.61416,-1.96807 4.3579,-2.32837 0.82006,-0.16945 2.50449,-0.15381 3.17528,0.0295 1.26692,0.34619 2.16908,0.84178 2.96315,1.62774 0.30491,0.3018 0.61628,0.63587 0.69193,0.74239 l 0.13754,0.19367 0.002,-1.14586 0.002,-1.14586 h 1.93667 1.93666 v 8.35993 8.35993 h -1.93666 -1.93667 v -1.09744 c 0,-0.6036 -0.0228,-1.09745 -0.0506,-1.09745 -0.0279,0 -0.10216,0.0872 -0.16513,0.19382 -0.18905,0.32005 -0.94439,1.03415 -1.41776,1.34038 -0.60927,0.39413 -1.28114,0.69473 -1.99407,0.89216 -0.48658,0.13475 -0.77871,0.17075 -1.53684,0.18936 -0.51483,0.0126 -1.11237,-0.002 -1.32787,-0.0324 z m 2.66692,-3.51914 c 1.74303,-0.41259 3.12303,-1.83212 3.64023,-3.7445 0.20091,-0.74286 0.20069,-2.22821 -4.4e-4,-2.96955 -0.69366,-2.55676 -2.91065,-4.12652 -5.42554,-3.84163 -1.74384,0.19754 -3.27392,1.34745 -3.939,2.96029 -0.35927,0.87123 -0.42374,1.24033 -0.41892,2.3984 0.004,0.88847 0.028,1.15083 0.14644,1.5816 0.54955,1.99854 2.07574,3.40155 4.0434,3.71705 0.43356,0.0695 1.45525,0.0164 1.95383,-0.10166 z m 35.19934,3.48502 c -2.44903,-0.33632 -4.51201,-1.45815 -5.81575,-3.16255 -0.8859,-1.15816 -1.40984,-2.44727 -1.64599,-4.04988 -0.1398,-0.94868 -0.0945,-2.59799 0.0936,-3.40625 0.61749,-2.65396 2.21428,-4.75227 4.5082,-5.92413 1.37033,-0.70003 2.38641,-0.94186 3.95743,-0.94186 0.86031,0 1.19553,0.0279 1.743,0.14513 3.4474,0.73812 5.94006,3.46188 6.56344,7.17198 0.10466,0.6229 0.14667,2.69044 0.0576,2.83457 -0.0316,0.0511 -1.88954,0.0712 -6.59256,0.0712 h -6.54857 v 0.19735 c 0,0.34549 0.13502,0.78661 0.4237,1.38425 0.90404,1.87162 2.9588,2.93937 5.14497,2.67355 0.77309,-0.094 1.29737,-0.25932 2.04887,-0.64608 0.74385,-0.38282 1.32459,-0.81254 1.95333,-1.44538 l 0.47319,-0.47626 1.30801,1.00637 1.30801,1.00638 -0.31025,0.32013 c -1.91777,1.97888 -3.76176,3.01133 -5.84486,3.27252 -0.70425,0.0883 -2.06513,0.0734 -2.82531,-0.031 z m 5.83483,-10.37659 c -0.36401,-2.09326 -1.67176,-3.53184 -3.59491,-3.9546 -0.62993,-0.13848 -2.06452,-0.10622 -2.6573,0.0598 -1.58406,0.4435 -2.71139,1.68404 -3.14343,3.4591 -0.0648,0.26629 -0.11807,0.52047 -0.11835,0.56486 -4e-4,0.0638 0.99736,0.0807 4.77499,0.0807 h 4.77549 z m -96.212457,-2.56608 v -12.58832 h 2.065774 2.065775 v 10.78076 10.78076 h 3.937882 3.937882 v 1.80756 1.80755 H 58.95558 52.951923 Z m 33.89161,4.22838 v -8.35993 h 5.358103 5.358102 v 1.90438 1.90439 H 94.138299 90.71686 v 6.45554 6.45555 h -1.936663 -1.936664 z m 34.438957,0.53333 c -1.66434,-4.30545 -3.12002,-8.06776 -3.23484,-8.36068 l -0.20877,-0.53258 1.98071,7.9e-4 1.98072,7.9e-4 2.48055,6.42408 c 1.36431,3.53324 2.50178,6.40157 2.52771,6.37406 0.0259,-0.0275 1.11342,-2.80977 2.41663,-6.18279 1.30321,-3.37302 2.413,-6.2417 2.46621,-6.37485 l 0.0967,-0.24208 h 1.96628 c 1.84357,0 1.964,0.007 1.92966,0.11297 -0.0201,0.0621 -1.46934,3.81684 -3.22043,8.34379 l -3.18381,8.23082 -2.48564,0.0169 -2.48564,0.0169 z m 34.11893,-4.76171 v -12.58832 h 1.96894 1.96894 v 12.58832 12.58831 h -1.96894 -1.96894 z"
       id="path145"
       clip-path="url(#clipPath5)"
       transform="matrix(0.62902076,0,0,0.62902076,-97.253527,541.01598)" /><path
       style="fill:#f59f13;fill-opacity:1;stroke-width:0.249593"
       d="m 127.1027,1062.0586 c -2.61891,-0.3711 -4.11213,-1.9883 -4.11213,-4.4538 0,-1.0315 0.21961,-2.0625 0.65562,-3.078 0.67839,-1.58 1.94259,-2.7436 3.43874,-3.1654 0.63936,-0.1802 1.74646,-0.2438 2.42301,-0.1393 1.85997,0.2875 2.95606,1.2411 3.19478,2.7796 0.11463,0.7392 -0.0217,1.7786 -0.37465,2.8558 l -0.10281,0.3137 h -3.14054 -3.14054 l 0.0333,0.4141 c 0.10666,1.3296 1.26534,2.0514 3.1189,1.9428 0.73641,-0.044 1.76177,-0.2801 2.27556,-0.5259 0.19034,-0.091 0.33507,-0.1289 0.33425,-0.088 -0.004,0.1712 -0.39076,2.4893 -0.42531,2.5452 -0.0639,0.1037 -0.76197,0.3412 -1.38929,0.4734 -0.68519,0.1445 -2.18054,0.2117 -2.78886,0.1262 z m 2.90783,-6.7627 c 0.0964,-0.1328 -0.0171,-0.8574 -0.18964,-1.2103 -0.26673,-0.5459 -0.74388,-0.7942 -1.37486,-0.7155 -0.86481,0.1078 -1.6362,0.7765 -2.01993,1.75 l -0.13454,0.3414 1.83301,-0.047 c 1.21066,-0.03 1.85101,-0.071 1.88596,-0.1195 z m 19.23019,6.7869 c -0.0727,-0.014 -0.29553,-0.058 -0.4953,-0.098 -0.88026,-0.1745 -1.609,-0.7288 -1.96924,-1.4973 -0.16117,-0.3439 -0.17699,-0.4484 -0.17691,-1.1701 9e-5,-0.6704 0.0388,-0.9705 0.2509,-1.9482 0.13795,-0.6355 0.36293,-1.6904 0.49997,-2.3443 l 0.24916,-1.1887 -0.81373,-0.018 c -0.58649,-0.013 -0.81375,-0.041 -0.81375,-0.1 0,-0.044 0.10399,-0.5668 0.23114,-1.1607 0.12712,-0.5942 0.23113,-1.0919 0.23113,-1.1061 0,-0.014 0.36829,-0.026 0.81841,-0.026 0.59458,0 0.82668,-0.023 0.84864,-0.082 0.0166,-0.045 0.17348,-0.7809 0.34855,-1.6344 0.17506,-0.8535 0.33691,-1.574 0.35967,-1.6012 0.0454,-0.055 3.04501,-0.5949 3.084,-0.5559 0.0133,0.013 -0.15445,0.868 -0.37274,1.8996 -0.21829,1.0315 -0.39711,1.8977 -0.39736,1.9249 -2.5e-4,0.026 0.68228,0.05 1.51677,0.05 h 1.51722 l -0.0422,0.2145 c -0.0232,0.1183 -0.13394,0.6455 -0.246,1.1723 l -0.20377,0.9575 -1.5262,0.017 -1.52624,0.017 -0.10439,0.5106 c -0.0575,0.2809 -0.25453,1.2387 -0.43794,2.1285 -0.18341,0.8899 -0.33369,1.7333 -0.33395,1.8744 -9.4e-4,0.9676 0.61954,1.4158 1.66142,1.1985 0.25615,-0.054 0.59926,-0.1752 0.76242,-0.2709 l 0.29669,-0.1739 -0.0386,0.1884 c -0.0354,0.1734 -0.30466,2.2442 -0.30493,2.3463 -2.3e-4,0.078 -0.69136,0.3066 -1.25339,0.4133 -0.49962,0.095 -1.29765,0.1248 -1.6194,0.062 z m -53.571053,-0.1209 c -0.96373,-0.3011 -1.5737,-1.0576 -1.74588,-2.1651 -0.0669,-0.4307 -0.0618,-0.5886 0.0357,-1.085 0.22561,-1.1482 0.76396,-1.8911 1.70626,-2.354 0.68503,-0.3368 1.20703,-0.4631 3.23088,-0.782 1.159033,-0.1824 1.825743,-0.3162 1.888053,-0.3786 0.0694,-0.069 0.0842,-0.1715 0.0533,-0.3652 -0.068,-0.4256 -0.23685,-0.646 -0.66114,-0.8629 -0.343263,-0.1756 -0.465453,-0.2006 -1.087703,-0.2218 -1.00508,-0.034 -2.34072,0.2385 -3.34877,0.6844 -0.23067,0.1023 -0.35362,0.1289 -0.35327,0.077 7e-4,-0.1208 0.44951,-2.6311 0.47468,-2.6563 0.0119,-0.013 0.37818,-0.1129 0.8135,-0.2239 2.19619,-0.5599 3.964683,-0.6062 5.188823,-0.1359 0.79808,0.3067 1.43336,0.9147 1.72348,1.6494 0.11755,0.2979 0.14354,0.4999 0.14411,1.1227 7.1e-4,0.7971 0.0262,0.6625 -1.29852,6.8679 l -0.14802,0.6935 -1.31104,0.018 -1.311043,0.018 0.0474,-0.6949 c 0.0442,-0.6489 0.0393,-0.6946 -0.0746,-0.6932 -0.0671,0 -0.21108,0.1222 -0.32003,0.2708 -0.37845,0.5145 -0.99685,0.9508 -1.66539,1.1748 -0.48267,0.1619 -1.5264,0.184 -1.98085,0.042 z m 3.15094,-2.4777 c 0.37915,-0.1912 0.79135,-0.5256 1.04836,-0.8501 0.159423,-0.2012 0.236533,-0.4164 0.369053,-1.0291 0.0922,-0.4262 0.16752,-0.8028 0.16752,-0.837 0,-0.035 -0.1238,0 -0.27497,0.078 -0.151233,0.077 -0.738143,0.2559 -1.304253,0.397 -1.42853,0.3567 -1.78722,0.6233 -1.84116,1.369 -0.0347,0.4796 0.09,0.7492 0.43334,0.9364 0.32843,0.179 0.97856,0.1491 1.40211,-0.065 z m -23.839741,2.2763 c 0,-0.055 0.221372,-1.1615 0.491939,-2.46 0.270567,-1.2984 0.636805,-3.0591 0.813854,-3.9126 l 0.321899,-1.552 -0.850695,-0.018 c -0.768283,-0.017 -0.847563,-0.029 -0.818303,-0.1314 0.0178,-0.062 0.126444,-0.5742 0.241308,-1.1372 0.114888,-0.5629 0.228861,-1.045 0.253247,-1.071 0.02444,-0.026 0.413201,-0.056 0.86403,-0.067 l 0.819711,-0.018 0.183822,-0.8915 c 0.22432,-1.0879 0.446314,-1.74 0.793505,-2.3315 0.686519,-1.1693 1.77458,-1.7786 3.345731,-1.8737 0.977873,-0.058 2.804778,0.243 2.895242,0.4787 0.0182,0.048 -0.124187,0.6237 -0.316469,1.2808 -0.286453,0.9789 -0.367912,1.1863 -0.451243,1.1495 -0.688666,-0.3039 -1.502307,-0.4201 -2.039881,-0.2911 -0.731652,0.1756 -1.119645,0.687 -1.335545,1.7601 -0.06999,0.3478 -0.12724,0.6594 -0.12724,0.6921 0,0.033 0.631292,0.06 1.451189,0.06 h 1.451176 l -0.04223,0.2146 c -0.02324,0.1182 -0.133922,0.6455 -0.245996,1.1722 l -0.203759,0.9575 -1.402377,0.017 c -1.389495,0.017 -1.402697,0.019 -1.436978,0.1652 -0.01899,0.081 -0.258587,1.232 -0.532381,2.5577 -0.273782,1.3256 -0.635104,3.0716 -0.802922,3.8798 l -0.305154,1.4692 h -1.50776 c -1.296888,0 -1.507753,-0.014 -1.507753,-0.1 z m 7.930151,-0.016 c 0.0026,-0.064 0.09962,-0.4721 0.214623,-0.9079 0.238806,-0.9049 0.195773,-0.8689 1.056538,-0.8838 0.248187,0 0.441348,-0.035 0.429247,-0.068 -0.01195,-0.033 -0.244893,-0.2205 -0.517306,-0.4165 l -0.495286,-0.3559 0.01859,-0.2854 c 0.02923,-0.4466 0.102536,-0.532 0.462465,-0.5388 0.171245,0 0.459769,-0.024 0.641175,-0.049 l 0.329831,-0.044 -0.552783,-0.387 -0.552783,-0.387 0.03958,-0.3344 c 0.02178,-0.1838 0.06986,-0.3645 0.106787,-0.4015 0.03693,-0.038 0.317571,-0.084 0.623616,-0.1036 0.306056,-0.02 0.574525,-0.055 0.596599,-0.077 0.02205,-0.023 -0.182308,-0.1938 -0.454216,-0.3818 -0.271909,-0.1879 -0.511025,-0.3687 -0.531359,-0.4016 -0.05272,-0.085 0.0344,-0.5751 0.122725,-0.69 0.04981,-0.065 0.280833,-0.1143 0.7017,-0.1503 l 0.627361,-0.054 -0.551932,-0.39 -0.551934,-0.3898 0.04317,-0.3362 c 0.05273,-0.4109 0.159476,-0.5011 0.594595,-0.502 0.183743,-5e-4 0.446368,-0.019 0.583623,-0.042 l 0.249542,-0.042 -0.512419,-0.3567 c -0.28183,-0.1961 -0.533921,-0.3951 -0.560207,-0.4421 -0.04011,-0.072 0.09018,-0.7361 0.15759,-0.8035 0.01195,-0.013 0.35633,-0.043 0.765348,-0.069 l 0.743698,-0.047 -0.133803,0.3121 c -0.07358,0.1718 -0.133815,0.3526 -0.133815,0.4021 0,0.049 0.311315,0.307 0.691791,0.5722 0.380477,0.2654 0.705593,0.5176 0.722487,0.5604 0.01687,0.042 -0.0054,0.2198 -0.04795,0.3935 -0.09218,0.3703 -0.163833,0.4037 -0.887582,0.4136 -0.263328,0 -0.478789,0.029 -0.478789,0.058 0,0.027 0.192788,0.1809 0.42841,0.3407 0.611795,0.4148 0.646833,0.4636 0.592497,0.826 -0.02511,0.1671 -0.07929,0.3257 -0.120468,0.3525 -0.04117,0.026 -0.35431,0.078 -0.695764,0.1142 l -0.620866,0.066 0.521809,0.3673 0.521783,0.3674 -0.0026,0.3502 c -0.0041,0.4499 -0.108247,0.5315 -0.686292,0.5376 -0.731652,0.013 -0.749357,0.052 -0.178617,0.4468 0.274923,0.1899 0.516497,0.3724 0.536831,0.4054 0.0526,0.085 -0.03413,0.5744 -0.122725,0.6924 -0.05126,0.068 -0.269039,0.1155 -0.7017,0.1502 l -0.627361,0.052 0.552717,0.3903 0.552702,0.3902 -0.03865,0.3261 c -0.02124,0.1795 -0.06986,0.3639 -0.107982,0.4099 -0.04118,0.049 -0.317705,0.101 -0.679174,0.1276 -0.335369,0.024 -0.733591,0.061 -0.884951,0.081 l -0.275177,0.037 -0.111702,0.4556 -0.1117,0.4556 H 83.55928 c -0.580247,0 -0.652634,-0.013 -0.64768,-0.1155 z m 5.343509,0.055 c 0,-0.033 0.150471,-0.7841 0.334387,-1.6675 1.037164,-4.9817 2.030877,-9.7652 2.37771,-11.4458 0.217384,-1.0533 0.409564,-1.9616 0.427074,-2.0184 0.026,-0.085 0.30568,-0.1262 1.5557,-0.2323 0.83816,-0.071 1.53188,-0.1129 1.54161,-0.095 0.009,0.019 -0.16987,0.9258 -0.39913,2.0152 -0.85418,4.0598 -2.79961,13.427 -2.79961,13.4802 0,0.013 -0.683487,0.024 -1.518867,0.024 -0.890875,0 -1.518874,-0.024 -1.518874,-0.061 z m 16.377454,0.021 c 0,-0.023 0.313,-1.5453 0.69556,-3.3845 0.38256,-1.8393 0.86155,-4.1465 1.06446,-5.1272 0.2029,-0.9806 0.38766,-1.8017 0.41059,-1.8245 0.0523,-0.052 2.45687,-0.2068 2.50283,-0.1609 0.0348,0.035 -0.096,1.3405 -0.16084,1.6057 -0.0703,0.2874 0.17791,0.1558 0.7006,-0.3718 0.82705,-0.8348 1.76208,-1.3019 2.75746,-1.3772 1.24222,-0.095 2.22878,0.4376 2.58653,1.3936 0.0776,0.2073 0.14099,0.4055 0.14099,0.4406 0,0.1705 0.24557,0.016 0.71419,-0.4484 0.99718,-0.9888 2.13695,-1.4647 3.31413,-1.3841 1.01368,0.069 1.61693,0.4517 2.02883,1.2853 l 0.24949,0.5048 -9.4e-4,0.9609 c -9.4e-4,0.9284 -0.0154,1.0259 -0.41475,2.8761 -0.22734,1.0532 -0.55581,2.6135 -0.72997,3.4669 l -0.31665,1.5519 -1.5304,0.017 c -0.84173,0.013 -1.53042,0 -1.53042,-0.013 0,-0.016 0.0725,-0.3657 0.16107,-0.7772 0.66559,-3.0918 1.09366,-5.375 1.09366,-5.8339 0,-0.9029 -0.33621,-1.2654 -1.12053,-1.208 -0.49302,0.035 -0.92179,0.2632 -1.47126,0.7795 l -0.45682,0.4293 -0.68756,3.3018 c -0.37818,1.816 -0.68777,3.3094 -0.68798,3.3186 -9.4e-4,0.035 -3.03817,0.013 -3.03817,-0.023 0,-0.041 0.5127,-2.5591 0.98656,-4.8485 0.36612,-1.7688 0.35226,-2.3437 -0.0662,-2.7442 -0.1889,-0.181 -0.2386,-0.1945 -0.71296,-0.1945 -0.46444,0 -0.54335,0.02 -0.88478,0.2273 -0.20615,0.1248 -0.56472,0.4221 -0.79679,0.6604 l -0.42197,0.4331 -0.64213,3.1368 c -0.35318,1.7254 -0.65664,3.1888 -0.67436,3.2525 -0.0295,0.1063 -0.16064,0.1155 -1.54664,0.1155 -0.83294,0 -1.51444,-0.019 -1.51444,-0.041 z m 28.68429,-0.075 c 0.0185,-0.064 0.20012,-0.9192 0.40382,-1.8999 0.20373,-0.9805 0.44225,-2.1248 0.53006,-2.5424 0.0878,-0.4178 0.26667,-1.2795 0.39745,-1.9152 0.49596,-2.4103 0.81478,-3.9087 0.83561,-3.927 0.0306,-0.026 2.51193,-0.1753 2.53565,-0.1518 0.0106,0.013 -0.0221,0.3313 -0.0729,0.712 -0.11594,0.8673 -0.11846,1.0555 -0.0142,1.0555 0.0454,-2e-4 0.35479,-0.2657 0.68753,-0.5898 0.48155,-0.4692 0.71903,-0.6446 1.16413,-0.8601 0.88369,-0.4276 1.71898,-0.5544 2.59113,-0.3932 0.96738,0.1787 1.59634,0.7697 1.85662,1.7441 0.11622,0.4352 0.11356,1.4848 -0.006,2.0909 -0.1843,0.9391 -1.36024,6.5615 -1.39623,6.6757 -0.0334,0.1049 -0.16649,0.1155 -1.55089,0.1155 -0.83293,0 -1.51441,-0.013 -1.51441,-0.018 0,-0.013 0.2823,-1.3925 0.62736,-3.0711 0.67332,-3.2754 0.73612,-3.7953 0.51168,-4.2355 -0.20238,-0.3969 -0.41461,-0.5 -1.02855,-0.4997 -0.47559,2e-4 -0.58231,0.024 -0.89776,0.1981 -0.19689,0.1089 -0.56316,0.391 -0.8139,0.627 l -0.4559,0.4293 -0.2893,1.4198 c -0.15914,0.7809 -0.46237,2.2521 -0.67386,3.269 l -0.38452,1.849 -1.53834,0.017 c -1.44452,0.017 -1.53629,0.013 -1.50489,-0.1 z m -46.844783,-12.0017 c -0.61894,-0.202 -0.968867,-0.764 -0.902816,-1.4504 0.120068,-1.2479 0.842183,-1.8942 2.125129,-1.9022 0.572546,0 0.91667,0.1182 1.201435,0.423 0.364021,0.3901 0.469531,1.094 0.265932,1.7737 -0.152716,0.51 -0.48782,0.88 -0.954907,1.0549 -0.490159,0.1834 -1.331745,0.2324 -1.734773,0.101 z"
       id="path146" /><g
       id="g172"
       transform="translate(-9.0082132,3.6151112)"><path
         style="fill:#ff291a;fill-opacity:1;stroke-width:0.0861025"
         d="m 25.37532,1057.5833 v -0.9113 h 22.610428 22.610427 v 0.9113 0.9112 H 47.985748 25.37532 Z m 0,-5.8057 v -0.9076 l 2.830575,-0.016 c 6.657844,-0.037 8.383806,-0.073 8.92457,-0.1856 0.583611,-0.1217 1.508496,-0.5613 2.110402,-1.0032 0.125856,-0.092 1.393752,-1.3415 3.990398,-3.9311 l 3.80593,-3.7958 -0.01056,-3.9271 c -0.01029,-3.8283 -0.01629,-4.303 -0.05439,-4.303 -0.01013,0 -0.452595,0.4283 -0.983246,0.9518 -1.306608,1.289 -1.249226,1.2465 -1.682431,1.2465 -0.265384,10e-5 -0.293551,0 -0.413833,-0.063 -0.161262,-0.079 -0.377743,-0.3058 -0.46544,-0.4872 -0.05827,-0.1205 -0.06433,-0.1562 -0.0652,-0.3839 -0.0014,-0.3779 0.03591,-0.4424 0.595748,-1.0279 0.494147,-0.5168 3.142023,-3.1378 3.390024,-3.3556 0.231096,-0.203 0.359481,-0.2596 0.613885,-0.2707 0.181729,-0.01 0.223671,0 0.351206,0.05 0.0857,0.035 0.206589,0.1119 0.29609,0.1889 0.206065,0.1771 3.14214,3.1025 3.538032,3.5251 0.358467,0.3827 0.441537,0.5161 0.464686,0.7461 0.01748,0.1736 -0.01906,0.3976 -0.09069,0.5558 -0.20252,0.4474 -0.79574,0.6614 -1.247486,0.45 -0.130915,-0.061 -0.250584,-0.1707 -1.090963,-0.9974 -1.080784,-1.0632 -1.177186,-1.1514 -1.207283,-1.1038 -0.02488,0.039 -0.02409,-0.054 -0.04159,4.9193 l -0.01399,3.9753 -0.06336,0.1203 c -0.08238,0.1563 -0.120621,0.1956 -3.900587,4.0056 -1.754158,1.7681 -3.327776,3.3573 -3.496927,3.5316 -0.814982,0.84 -1.680795,1.4159 -2.813489,1.8715 -0.92217,0.3709 -1.45105,0.4548 -3.18938,0.5061 -0.41348,0.012 -2.850793,0.022 -5.416251,0.023 h -4.66445 z"
         id="path166" /><path
         style="fill:url(#linearGradient172);fill-opacity:1;stroke-width:0.0861025"
         d="m 60.788831,1052.6471 c -1.096416,-0.02 -2.004549,-0.094 -2.488988,-0.2028 -0.683863,-0.1534 -1.618531,-0.5502 -2.283692,-0.9696 -0.144092,-0.091 -0.330436,-0.2017 -0.414099,-0.2462 -0.171794,-0.091 -0.72038,-0.5823 -1.1692,-1.0461 -0.150357,-0.1554 -1.221646,-1.232 -2.380645,-2.3924 -1.56528,-1.5673 -2.123188,-2.1397 -2.169167,-2.2256 -0.03404,-0.064 -0.07761,-0.1759 -0.09682,-0.2497 -0.03783,-0.1452 -0.04651,-0.3972 -0.01587,-0.4608 0.01048,-0.022 0.05378,-0.1113 0.09624,-0.199 0.09636,-0.1991 0.241504,-0.3469 0.432208,-0.4403 0.295921,-0.1449 0.511819,-0.1459 0.815842,0 0.173145,0.081 0.186765,0.094 3.249871,3.1451 1.152733,1.1482 2.157699,2.1341 2.233259,2.1909 0.566259,0.4258 1.228324,0.7736 1.900832,0.9984 0.484303,0.162 0.837621,0.1908 2.768639,0.2258 1.288694,0.023 6.895852,0.069 8.495154,0.069 h 0.833783 v 0.9112 0.9113 h -4.755593 c -2.615577,0 -4.888865,-0.01 -5.051751,-0.01 z"
         id="path165" /></g><text
       xml:space="preserve"
       style="font-style:normal;font-variant:normal;font-weight:normal;font-stretch:normal;font-size:23.428px;line-height:0.5;font-family:Mafia;-inkscape-font-specification:'Mafia, Normal';font-variant-ligatures:normal;font-variant-caps:normal;font-variant-numeric:normal;font-variant-east-asian:normal;text-align:start;text-decoration-color:#000000;writing-mode:lr-tb;direction:ltr;text-anchor:start;white-space:pre;inline-size:248.459;display:inline;fill:#000000;fill-opacity:1;fill-rule:evenodd;stroke-width:2.61197"
       x="47.850975"
       y="1072.001"
       id="text158"
       transform="matrix(1.0570849,0,0,1.0570849,-136.79854,-56.250193)"><tspan
         x="47.850975"
         y="1072.001"
         id="tspan2"><tspan
           style="font-size:8.11389px;font-family:Gilroy;-inkscape-font-specification:'Gilroy, Normal';text-align:center;text-anchor:middle"
           id="tspan1"> A reusable Laravel and FilamentPHP-based library offering </tspan></tspan><tspan
         x="47.850975"
         y="1083.715"
         id="tspan4"><tspan
           style="font-size:8.11389px;font-family:Gilroy;-inkscape-font-specification:'Gilroy, Normal';text-align:center;text-anchor:middle"
           id="tspan3">foundational services out of the box by Numerimondes. </tspan></tspan></text><path
       d="m -51.165694,1000.1361 q 0.09371,0 0.09371,0.094 l 0.04686,0.1406 q 0.07028,0.07 0.210852,0.2343 0.163996,0.1405 0.304564,0.3045 0.163996,0.164 0.304564,0.3046 0.163996,0.1405 0.23428,0.2108 l 1.686816,7.1924 0.07028,-0.3514 q 0.46856,-1.9914 0.960548,-4.053 0.491988,-2.0851 0.960548,-4.0062 0,-0.07 0.09371,-0.07 h 9.019779 q 0.09371,0 0.09371,0.094 l 0.04686,0.1406 q 0.07028,0.07 0.210852,0.2343 0.163996,0.1405 0.304564,0.3045 0.163996,0.164 0.304564,0.3046 0.163996,0.1405 0.23428,0.2108 l 1.686816,7.1924 0.07028,-0.3514 q 0.46856,-1.9914 0.960548,-4.053 0.491988,-2.0851 0.960548,-4.0062 0,-0.07 0.09371,-0.07 h 3.98276 q 0.09371,0 0.09371,0.094 l -0.02343,0.094 q 0.281136,0.2577 0.538844,0.5389 0.257708,0.2811 0.538844,0.5388 0.02343,0.023 0.02343,0.094 l -3.959332,16.915 q 0,0.07 -0.09371,0.07 h -12.182559 l -1.101116,-1.1011 h -0.09371 q -0.09371,0 -0.09371,-0.07 l -0.09371,-0.4217 q -0.11714,0.3983 -0.210852,0.7731 -0.07028,0.3749 -0.163996,0.7497 0,0.07 -0.09371,0.07 h -13.517956 l -1.101116,-1.1011 h -0.09371 q -0.09371,0 -0.09371,-0.07 l -3.98276,-17.0556 q -0.04686,-0.1171 0.09371,-0.1171 z m 5.458724,0.7028 q -0.538844,2.2023 -1.05426,4.4045 -0.491988,2.1788 -1.007404,4.381 -0.421704,1.804 -0.81998,3.5142 -0.398276,1.7103 -0.843408,3.5377 h 2.717648 l 1.40568,-5.3182 q 0.02343,-0.07 0.09371,-0.07 0.07028,0 0.09371,0.07 l 1.147972,5.3182 h 8.059231 l 0.983976,-4.1937 -2.741076,-11.6437 z m 13.986515,0 q -0.538844,2.2023 -1.05426,4.4045 -0.491988,2.1788 -1.007404,4.381 -0.421704,1.804 -0.81998,3.5142 -0.398276,1.7103 -0.843408,3.5377 h 2.717648 l 3.725052,-15.8374 z m -31.346663,0 3.725052,15.8374 h 9.441484 l 0.983976,-4.1937 -2.741076,-11.6437 z m 17.641284,0.3515 q -0.398276,1.5931 -0.749696,3.1627 -0.35142,1.5463 -0.726268,3.1394 l -0.515416,2.2022 -0.515416,2.1554 -1.05426,4.4747 h 2.014808 l 1.335396,-5.0604 h -0.02343 q 0.09371,-0.328 0.445132,-0.3046 0.35142,0 0.445132,0.328 l 1.101116,5.037 h 7.473531 l 0.890264,-3.8422 q -0.679412,-2.8816 -1.335396,-5.6461 -0.632556,-2.7645 -1.311968,-5.6461 z m 13.986515,0 q -0.398276,1.5931 -0.749696,3.1627 -0.35142,1.5463 -0.726268,3.1394 l -0.515416,2.2022 -0.515416,2.1554 -1.05426,4.4747 h 1.99138 l 3.561056,-15.1344 z m -31.182667,0 3.561056,15.1344 h 8.879212 l 0.890264,-3.8422 q -0.679412,-2.8816 -1.335396,-5.6461 -0.632556,-2.7645 -1.311968,-5.6461 z m 54.915215,-1.0543 q 0.093712,0 0.093712,0.094 v 0.094 q 0.070284,0.07 0.210852,0.2343 0.163996,0.1406 0.327992,0.328 0.163996,0.164 0.304564,0.3046 0.163996,0.1405 0.23428,0.2108 v 0.023 q 0.023428,0.047 0.023428,0.047 v 3.725 q 0,0.094 -0.093712,0.094 h -6.840976 v 2.3896 h 5.646148 q 0.093712,0 0.093712,0.094 v 0.094 q 0.070284,0.07 0.210852,0.2343 0.163996,0.1406 0.327992,0.328 0.163996,0.164 0.304564,0.3046 0.163996,0.1405 0.23428,0.2108 v 0.023 q 0.023428,0.047 0.023428,0.047 v 3.7016 q 0,0.094 -0.093712,0.094 h -6.747264 v 0.5155 h 5.73986 q 0.093712,0 0.093712,0.094 v 0.094 q 0.070284,0.07 0.210852,0.2343 0.163996,0.1405 0.327992,0.328 0.163996,0.1639 0.304564,0.3045 0.163996,0.1406 0.23428,0.2109 v 0.023 q 0.023428,0.047 0.023428,0.047 v 3.725 q 0,0.094 -0.093712,0.094 h -18.297267 l -1.101116,-1.1011 h -0.09371 q -0.09371,0 -0.09371,-0.094 v -17.0556 q 0,-0.094 0.09371,-0.094 z m -17.781851,13.8928 v 2.6474 h 17.172723 v -2.6474 z m 0,-13.19 v 12.7214 h 10.238035 v -2.4599 q 0,-0.094 0.09371,-0.094 h 6.747264 v -2.624 h -6.747264 q -0.09371,0 -0.09371,-0.094 v -4.709 q 0,-0.094 0.09371,-0.094 h 6.840976 v -2.6474 z m 0.35142,0.3515 v 12.0185 h 9.535195 v -2.1085 q 0,-0.164 0.11714,-0.3046 0.140568,-0.1405 0.327992,-0.1405 h 6.395844 v -1.9211 h -6.395844 q -0.187424,0 -0.327992,-0.1172 -0.11714,-0.1405 -0.11714,-0.328 v -4.709 q 0,-0.164 0.11714,-0.3046 0.140568,-0.1405 0.327992,-0.1405 h 6.489556 v -1.9445 z m 0,13.1899 v 1.9445 h 16.469883 v -1.9445 z m 33.2443098,-1.0542 h 0.374848 q 0.445132,0 0.843408,-0.164 0.421704,-0.1875 0.7028402,-0.492 0.304564,-0.3046 0.46856,-0.7029 0.187424,-0.3982 0.187424,-0.8668 0,-0.2343 -0.07028,-0.4686 -0.04686,-0.2577 -0.140568,-0.4685 -0.445132,-0.164 -0.8199802,-0.164 h -1.546248 z m -13.2133918,4.053 h -0.093712 q -0.093712,0 -0.093712,-0.094 v -17.0556 q 0,-0.094 0.093712,-0.094 H 8.4819558 q 1.124544,0 2.0382362,0.5154 0.93712,0.5154 1.52282,1.3588 v -0.023 l 0.655984,0.6326 q 0.562272,0.6091 0.890264,1.4056 0.35142,0.7732 0.35142,1.6634 0,0.8903 -0.374848,1.7571 l 0.374848,0.3749 q 0,0.023 0,0.023 0.02343,0 0.02343,0.023 l 0.07028,0.047 q 0.866836,0.8668 1.335396,1.9914 0.46856,1.1011 0.46856,2.3662 0,1.2651 -0.491988,2.4131 -0.491988,1.1245 -1.335396,1.9679 -0.843408,0.8434 -1.967952,1.3354 -1.124544,0.492 -2.3896562,0.492 H -3.958312 -4.005168 q -0.023428,0 -0.023428,-0.023 z m 13.5882398,-9.1838 q 0.5857,0 1.124544,0.2343 0.5388442,0.2343 0.9136922,0.6326 0.398276,0.3748 0.632556,0.9137 0.23428,0.5388 0.23428,1.1245 0,0.6091 -0.23428,1.148 -0.210852,0.5154 -0.609128,0.9137 -0.398276,0.3982 -0.9371202,0.6325 -0.515416,0.2343 -1.124544,0.2343 h -1.733672 l -1.218256,2.6474 h 2.951928 q 1.147972,0 2.1553762,-0.4452 1.007404,-0.4451 1.7571,-1.1948 0.773124,-0.7497 1.194828,-1.7571 0.445132,-1.0308 0.445132,-2.1788 0,-1.4057 -0.632556,-2.6005 -0.632556,-1.1948 -1.7571,-1.968 -0.07028,-0.023 -0.02343,-0.1171 0.515416,-0.8903 0.515416,-1.8977 0,-0.7731 -0.281136,-1.4291 -0.281136,-0.6794 -0.773124,-1.1714 -0.491988,-0.492 -1.1714002,-0.7731 -0.655984,-0.3046 -1.429108,-0.3046 h -0.421704 l -1.218256,2.6474 h 1.63996 q 0.445132,0 0.726268,0.3046 0.304564,0.2811 0.304564,0.7262 0,0.4452 -0.304564,0.7497 -0.281136,0.2812 -0.726268,0.2812 h -2.085092 q -0.09371,0 -0.09371,-0.094 v -1.921 l 1.241684,-2.6943 H -4.590868 v 7.3564 z m -2.178804,0.4686 H -4.590868 v 8.0124 h 9.5820518 l 1.311968,-2.8348 z m 2.178804,-0.82 q 0.655984,0 1.241684,0.2577 0.6091282,0.2577 1.0542602,0.7029 0.445132,0.4451 0.70284,1.0542 0.257708,0.5857 0.257708,1.2417 0,0.6794 -0.257708,1.2885 -0.257708,0.5857 -0.70284,1.0309 -0.421704,0.4451 -1.0308322,0.7028 -0.5857,0.2577 -1.265112,0.2577 h -1.499392 l -0.913692,1.9445 h 2.413084 q 1.077688,0 2.0148082,-0.3982 0.960548,-0.4217 1.663388,-1.1246 0.70284,-0.7262 1.101116,-1.6634 0.421704,-0.9605 0.421704,-2.0382 0,-1.3354 -0.5857,-2.4365 -0.5857,-1.1246 -1.63996,-1.8508 l 0.02343,0.023 q -0.187424,-0.1171 -0.23428,-0.2577 -0.02343,-0.164 0.07028,-0.328 0.46856,-0.7966 0.46856,-1.7337 0,-0.7028 -0.257708,-1.2885 -0.257708,-0.6091 -0.70284,-1.0543 -0.445132,-0.4685 -1.0542602,-0.7262 -0.5857,-0.2577 -1.28854,-0.2577 h -0.187424 l -0.913692,1.9445 h 1.101116 q 0.609128,0 0.983976,0.3983 0.398276,0.3748 0.398276,0.9839 0,0.6092 -0.398276,1.0074 -0.374848,0.3749 -0.983976,0.3749 h -2.085092 q -0.187424,0 -0.327992,-0.1172 -0.11714,-0.1405 -0.11714,-0.328 v -2.0148 l 1.05426,-2.249 H -4.239448 v 6.6535 z m -2.530224,1.1714 H -4.239448 v 7.3095 h 8.9963518 l 1.194828,-2.5536 z m 22.0691942,-8.8792 q 0.09371,0 0.09371,0.094 v 0.094 q 0.07028,0.07 0.210852,0.2343 0.163996,0.1406 0.327992,0.328 0.163996,0.164 0.304564,0.3046 0.163996,0.1405 0.23428,0.2108 v 0.023 q 0.02343,0.047 0.02343,0.047 v 3.9125 l 3.889048,-5.2011 q 0.04686,-0.047 0.07028,-0.047 l 4.779312,0.094 0.02343,0.1171 q 0.515416,0.5389 1.05426,1.0543 0.04686,0.047 0,0.1171 l -6.67698,8.9964 q 1.710244,1.9679 3.373632,3.9125 1.686816,1.9211 3.39706,3.889 0.04686,0.047 0.02343,0.094 -0.02343,0.07 -0.09371,0.07 h -4.943308 l -1.101116,-1.1011 h -0.04686 q -0.07028,0 -0.07028,-0.023 l -3.04564,-3.4908 q -0.11714,0.164 -0.23428,0.328 -0.11714,0.1406 -0.23428,0.3046 h 0.02343 q -0.04686,0.07 -0.09371,0.1405 -0.04686,0.07 -0.09371,0.1406 v 3.6079 q 0,0.094 -0.09371,0.094 H 18.251451 l -1.101116,-1.1011 h -0.09371 q -0.09371,0 -0.09371,-0.094 v -17.0556 q 0,-0.094 0.09371,-0.094 z m 5.435296,0.7028 q -2.998784,4.0296 -5.927284,7.9187 -2.928499,3.889 -5.927283,7.9187 h 5.810143 v -3.3034 q 0.02343,-0.047 0.02343,-0.047 l 1.265112,-1.6869 q 1.944524,-2.6005 4.006188,-5.3884 2.085092,-2.8114 4.029616,-5.4119 z m -15.790471,0 v 15.8374 h 3.39706 l 6.348987,-8.5278 v -7.3096 z m 11.409435,11.058 4.146756,4.7794 h 3.490772 q -1.546248,-1.7806 -3.022212,-3.4674 -1.452536,-1.6868 -2.998784,-3.4673 z m 4.545032,-10.7065 -5.810144,7.778 -5.505579,7.3564 h 4.755883 q 0,-0.7731 0,-1.5696 0.02343,-0.7966 0.02343,-1.5463 l 1.335396,-1.7805 q 1.967952,-2.6005 4.006188,-5.3885 l 3.63134,-4.8495 z m -15.603047,0 v 15.1344 h 2.858216 q 1.546248,-2.1085 3.092496,-4.1467 1.546248,-2.0383 3.092495,-4.1468 v -6.8409 z m 11.503147,10.7065 3.86562,4.4279 h 2.530224 q -0.655984,-0.7497 -1.265112,-1.4525 -0.609128,-0.7028 -1.218256,-1.4291 -0.749696,-0.8668 -1.382252,-1.5463 -0.609128,-0.7028 -1.358824,-1.5931 z m 28.886738,-11.7608 q 0.09371,0 0.09371,0.094 v 0.094 q 0.07028,0.07 0.210852,0.2343 0.163996,0.1406 0.327992,0.328 0.163996,0.164 0.304564,0.3046 0.163996,0.1405 0.23428,0.2108 v 0.023 q 0.02343,0.047 0.02343,0.047 v 3.725 q 0,0.094 -0.09371,0.094 h -6.840976 v 2.3896 h 5.646148 q 0.09371,0 0.09371,0.094 v 0.094 q 0.07028,0.07 0.210852,0.2343 0.163996,0.1406 0.327992,0.328 0.163996,0.164 0.304564,0.3046 0.163996,0.1405 0.23428,0.2108 v 0.023 q 0.02343,0.047 0.02343,0.047 v 3.7016 q 0,0.094 -0.09371,0.094 H 52.6672 v 0.5155 h 5.73986 q 0.09371,0 0.09371,0.094 v 0.094 q 0.07028,0.07 0.210852,0.2343 0.163996,0.1405 0.327992,0.328 0.163996,0.1639 0.304564,0.3045 0.163996,0.1406 0.23428,0.2109 v 0.023 q 0.02343,0.047 0.02343,0.047 v 3.725 q 0,0.094 -0.09371,0.094 H 41.210904 l -1.101116,-1.1011 h -0.09371 q -0.09371,0 -0.09371,-0.094 v -17.0556 q 0,-0.094 0.09371,-0.094 z m -17.781852,13.8928 v 2.6474 h 17.172724 v -2.6474 z m 0,-13.19 v 12.7214 H 50.86324 v -2.4599 q 0,-0.094 0.09371,-0.094 h 6.747264 v -2.624 H 50.95695 q -0.09371,0 -0.09371,-0.094 v -4.709 q 0,-0.094 0.09371,-0.094 h 6.840976 v -2.6474 z m 0.35142,0.3515 v 12.0185 h 9.535196 v -2.1085 q 0,-0.164 0.11714,-0.3046 0.140568,-0.1405 0.327992,-0.1405 h 6.395844 v -1.9211 h -6.395844 q -0.187424,0 -0.327992,-0.1172 -0.11714,-0.1405 -0.11714,-0.328 v -4.709 q 0,-0.164 0.11714,-0.3046 0.140568,-0.1405 0.327992,-0.1405 h 6.489556 v -1.9445 z m 0,13.1899 v 1.9445 h 16.469884 v -1.9445 z m 32.447759,-5.7633 h 1.007404 q 0.445132,0 0.843408,-0.164 0.421704,-0.1874 0.70284,-0.492 0.304564,-0.3045 0.46856,-0.7028 0.187424,-0.3983 0.187424,-0.8668 0,-0.2343 -0.07028,-0.4686 -0.04686,-0.2577 -0.140568,-0.4686 -0.445132,-0.1639 -0.81998,-0.1639 h -2.178808 z m 1.007404,-8.4809 q 1.546248,0 2.834788,0.6794 1.28854,0.6794 2.155376,1.8274 v -0.023 l 0.562272,0.5622 q 0.843408,0.8434 1.311967,1.9914 0.491988,1.1246 0.491988,2.3897 0,1.6868 -0.866835,3.1159 -0.843408,1.4291 -2.22566,2.2491 l 3.420487,5.4118 q 0.09371,0.1406 -0.07028,0.1406 h -4.427891 l -1.101116,-1.1011 h -0.07028 q -0.02343,0 -0.07028,-0.047 l -2.249088,-3.561 h -0.70284 v 4.6153 q 0,0.094 -0.09371,0.094 h -11.24544 l -1.101116,-1.1011 h -0.09371 q -0.09371,0 -0.09371,-0.094 v -17.0556 q 0,-0.094 0.09371,-0.094 z m 2.553652,11.7374 -0.07028,0.047 q -0.04686,-0.047 -0.04686,-0.094 z m 2.9285,4.8028 q -0.726268,-1.1714 -1.52282,-2.3663 -0.773124,-1.2182 -1.475964,-2.3896 -0.679412,0.328 -1.358824,0.4217 -0.679412,0.07 -1.429108,0.094 l 2.647364,4.2405 z m -18.414408,0 h 10.120896 v -4.2405 H 61.499531 Z m 8.808928,-15.8374 h -8.808928 v 11.1283 h 12.932256 q 1.147972,0 2.155376,-0.4451 1.007404,-0.4451 1.7571,-1.1948 0.773124,-0.7497 1.194828,-1.7571 0.445132,-1.0309 0.445132,-2.1788 0,-1.148 -0.445132,-2.1554 -0.421704,-1.0074 -1.194828,-1.7571 -0.749696,-0.7731 -1.7571,-1.1948 -1.007404,-0.4452 -2.155376,-0.4452 h -3.584484 l 1.218256,2.6474 h 2.366228 q 0.5857,0 1.124544,0.2343 0.538844,0.2343 0.913692,0.6325 0.398276,0.3749 0.632556,0.9137 0.23428,0.5389 0.23428,1.1246 0,0.6091 -0.23428,1.1479 -0.210852,0.5155 -0.609128,0.9137 -0.398276,0.3983 -0.93712,0.6326 -0.515416,0.2343 -1.124544,0.2343 h -2.717648 q -0.09371,0 -0.09371,-0.094 v -5.5525 z m 6.67698,15.4859 h 2.295944 q -0.23428,-0.3514 -0.46856,-0.7262 -0.210852,-0.3749 -0.46856,-0.7497 -0.445132,-0.6794 -0.81998,-1.2417 -0.374848,-0.5623 -0.773124,-1.2417 -0.491988,0.1874 -0.983976,0.2811 -0.46856,0.07 -1.007404,0.1172 z m -15.134488,0 h 9.418056 v -3.5376 h -9.418056 z m 8.223228,-15.1344 h -8.223228 v 10.4254 h 12.580836 q 1.077688,0 2.014808,-0.3983 0.960548,-0.4217 1.663388,-1.1245 0.70284,-0.7263 1.101116,-1.6634 0.421704,-0.9605 0.421704,-2.0382 0,-1.0777 -0.421704,-2.0148 -0.398276,-0.9606 -1.101116,-1.6634 -0.70284,-0.7029 -1.663388,-1.1011 -0.93712,-0.4217 -2.014808,-0.4217 h -3.04564 q 0.210852,0.4685 0.445132,0.9605 0.23428,0.4686 0.46856,0.984 h 2.131948 q 0.655984,0 1.241684,0.2577 0.609128,0.2577 1.05426,0.7028 0.445132,0.4452 0.70284,1.0543 0.257708,0.5857 0.257708,1.2417 0,0.6794 -0.257708,1.2885 -0.257708,0.5857 -0.70284,1.0308 -0.421704,0.4452 -1.030832,0.7029 -0.5857,0.2577 -1.265112,0.2577 h -2.717648 q -0.187424,0 -0.327992,-0.1172 -0.11714,-0.1405 -0.11714,-0.3279 v -5.4822 z m 31.932361,-1.0543 q 0.0937,0 0.0937,0.094 v 0.094 q 0.0703,0.07 0.21085,0.2343 0.164,0.1406 0.32799,0.328 0.164,0.164 0.30457,0.3046 0.16399,0.1405 0.23428,0.2108 v 0.023 q 0.0234,0.047 0.0234,0.047 v 16.915 q 0,0.094 -0.0937,0.094 h -3.561053 l -1.10112,-1.1011 h -0.0703 q -0.0234,0 -0.0703,-0.047 l -3.13935,-5.0604 v 6.1147 q 0,0.094 -0.0937,0.094 H 84.294965 l -1.101116,-1.1011 h -0.09371 q -0.09371,0 -0.09371,-0.094 v -17.0556 q 0,-0.094 0.09371,-0.094 h 9.254058 q 0.0469,0 0.0937,0.047 l 0.18743,0.3046 q 0.0468,0.047 0.16399,0.1874 0.11714,0.1172 0.25771,0.2577 0.14057,0.1172 0.25771,0.2578 0.11714,0.1171 0.18742,0.1639 l 4.54503,7.333 v -8.4575 q 0,-0.094 0.0937,-0.094 z m -3.256503,0.7028 v 10.5426 q 0,0.07 -0.0703,0.094 -0.0469,0 -0.0937,-0.047 l -6.55984,-10.5895 h -3.115926 l 9.792906,15.8374 h 2.694223 v -15.8374 z m -5.38844,8.1295 -5.013588,-8.1295 h -4.638744 v 15.8374 h 9.652332 z m 5.73986,-7.778 v 10.1911 q 0,0.328 -0.32799,0.4217 -0.30456,0.07 -0.49199,-0.1874 l -6.46612,-10.4254 h -2.27252 q 2.36623,3.8421 4.6856,7.5672 2.31937,3.7016 4.6856,7.5672 h 2.131953 v -15.1344 z m -6.09128,7.8952 q -1.26511,-2.0148 -2.436508,-3.9359 -1.147972,-1.9445 -2.413084,-3.9593 h -4.0999 v 15.1344 h 8.949492 z m 30.011293,-8.9495 q 0.0937,0 0.0937,0.094 v 0.094 q 0.0703,0.07 0.21085,0.2343 0.164,0.1406 0.328,0.328 0.16399,0.164 0.30456,0.3046 0.164,0.1405 0.23428,0.2108 v 0.023 q 0.0234,0.047 0.0234,0.047 v 3.725 q 0,0.094 -0.0937,0.094 h -6.84098 v 2.3896 h 5.64615 q 0.0937,0 0.0937,0.094 v 0.094 q 0.0703,0.07 0.21085,0.2343 0.164,0.1406 0.32799,0.328 0.164,0.164 0.30457,0.3046 0.16399,0.1405 0.23428,0.2108 v 0.023 q 0.0234,0.047 0.0234,0.047 v 3.7016 q 0,0.094 -0.0937,0.094 h -6.74726 v 0.5155 h 5.73986 q 0.0937,0 0.0937,0.094 v 0.094 q 0.0703,0.07 0.21085,0.2343 0.164,0.1405 0.328,0.328 0.16399,0.1639 0.30456,0.3045 0.164,0.1406 0.23428,0.2109 v 0.023 q 0.0234,0.047 0.0234,0.047 v 3.725 q 0,0.094 -0.0937,0.094 h -18.29727 l -1.10112,-1.1011 h -0.0937 q -0.0937,0 -0.0937,-0.094 v -17.0556 q 0,-0.094 0.0937,-0.094 z m -17.78185,13.8928 v 2.6474 h 17.17272 v -2.6474 z m 0,-13.19 v 12.7214 h 10.23803 v -2.4599 q 0,-0.094 0.0937,-0.094 h 6.74726 v -2.624 h -6.74726 q -0.0937,0 -0.0937,-0.094 v -4.709 q 0,-0.094 0.0937,-0.094 h 6.84097 v -2.6474 z m 0.35142,0.3515 v 12.0185 h 9.53519 v -2.1085 q 0,-0.164 0.11714,-0.3046 0.14057,-0.1405 0.328,-0.1405 h 6.39584 v -1.9211 h -6.39584 q -0.18743,0 -0.328,-0.1172 -0.11714,-0.1405 -0.11714,-0.328 v -4.709 q 0,-0.164 0.11714,-0.3046 0.14057,-0.1405 0.328,-0.1405 h 6.48955 v -1.9445 z m 0,13.1899 v 1.9445 h 16.46988 v -1.9445 z m 31.01865,-14.0334 q 0.0703,0.07 0.21085,0.2343 0.164,0.1406 0.32799,0.328 0.164,0.164 0.30457,0.3046 0.16399,0.1405 0.23428,0.2108 v 0.024 q 0.0234,0.047 0.0234,0.047 v 11.878 h 3.0925 q 0.0937,0 0.0937,0.094 v 0.094 q 0.0703,0.07 0.21085,0.2343 0.164,0.1406 0.328,0.328 0.16399,0.164 0.30456,0.3046 0.164,0.1405 0.23428,0.2108 v 0.024 q 0.0234,0.047 0.0234,0.047 v 3.7016 q 0,0.094 -0.0937,0.094 h -15.11106 l -1.10112,-1.1011 h -0.0937 q -0.0937,0 -0.0937,-0.094 v -17.0556 q 0,-0.094 0.0937,-0.094 h 10.91745 q 0.0937,0 0.0937,0.094 z m -10.40203,13.7289 v 2.6239 h 13.98651 v -2.6239 z m 9.69919,-13.2134 h -9.69919 v 12.7448 h 9.69919 z m -9.34777,13.5648 v 1.9211 h 13.28367 v -1.9211 z m 8.99635,-13.2134 h -8.99635 v 12.042 h 8.99635 z"
       id="text167"
       style="-inkscape-font-specification:'Mafia, Normal';fill:url(#linearGradient178);fill-opacity:1;fill-rule:evenodd;stroke-width:1.23819"
       aria-label="Webkernel" /><text
       xml:space="preserve"
       style="font-style:normal;font-variant:normal;font-weight:normal;font-stretch:normal;font-size:23.428px;line-height:1.2;font-family:Mafia;-inkscape-font-specification:'Mafia, Normal';font-variant-ligatures:normal;font-variant-caps:normal;font-variant-numeric:normal;font-variant-east-asian:normal;text-align:start;text-decoration-color:#000000;writing-mode:lr-tb;direction:ltr;text-anchor:start;white-space:pre;fill:url(#linearGradient181);fill-opacity:1;fill-rule:evenodd;stroke-width:1.23819"
       x="142.25583"
       y="1016.77"
       id="text173"><tspan
         id="tspan173"
         style="font-style:normal;font-variant:normal;font-weight:normal;font-stretch:normal;font-size:23.428px;font-family:Mafia;-inkscape-font-specification:'Mafia, Normal';font-variant-ligatures:normal;font-variant-caps:normal;font-variant-numeric:normal;font-variant-east-asian:normal;fill:url(#linearGradient181);fill-opacity:1;stroke-width:1.23819"
         x="142.25583"
         y="1016.77">*</tspan></text><path
       style="fill:#000000;stroke-width:0.199914"
       d="m -93.569721,1100.0562 c 0.01123,-0.051 0.284721,-1.4271 0.607649,-3.0562 0.32293,-1.6292 0.599874,-3.0156 0.615434,-3.081 l 0.02829,-0.1195 h 1.450173 c 1.297302,0 1.480808,0.012 1.740771,0.1015 0.422255,0.1485 0.68024,0.3764 0.875814,0.7736 0.151471,0.3078 0.167838,0.3883 0.168562,0.8301 0.0014,0.8823 -0.306083,1.6628 -0.882131,2.2388 -0.563589,0.5635 -0.859779,0.6597 -2.172688,0.7054 l -0.897344,0.031 -0.162436,0.8198 -0.162438,0.8199 -0.61508,0.014 c -0.566513,0.013 -0.613463,0.012 -0.594576,-0.079 z m 3.048636,-2.6632 c 0.136597,-0.025 0.329828,-0.079 0.429403,-0.1209 0.391715,-0.1638 0.66814,-0.7639 0.710011,-1.5415 0.0234,-0.4347 0.01532,-0.4891 -0.09295,-0.6255 -0.06522,-0.082 -0.176219,-0.1714 -0.246655,-0.1981 -0.209943,-0.08 -1.026304,-0.1553 -1.313779,-0.1216 l -0.267511,0.031 -0.254716,1.2966 c -0.209049,1.0641 -0.241866,1.3052 -0.183034,1.3441 0.07575,0.05 0.80062,0.012 1.219238,-0.064 z m 7.525599,2.6352 c 0.01485,-0.066 0.290251,-1.4519 0.612009,-3.0811 0.321759,-1.6291 0.597296,-3.0037 0.612306,-3.0547 0.02511,-0.085 0.140331,-0.092 1.442265,-0.092 1.140438,0 1.470717,0.017 1.702269,0.085 0.742307,0.2182 1.107151,0.7625 1.107151,1.6519 0,0.9936 -0.425528,1.9096 -1.136376,2.4463 -0.451209,0.3407 -0.796457,0.4262 -1.878584,0.4652 l -0.925646,0.033 -0.169811,0.8198 c -0.0934,0.451 -0.170754,0.8259 -0.171907,0.8331 -0.0012,0.012 -0.276274,0.013 -0.611381,0.013 -0.604592,0 -0.609081,0 -0.582295,-0.1196 z m 3.141356,-2.6629 c 0.185076,-0.042 0.400512,-0.1212 0.478744,-0.1769 0.481297,-0.3427 0.774206,-1.7767 0.436366,-2.1363 -0.174539,-0.1858 -0.998569,-0.3281 -1.532898,-0.2649 l -0.254836,0.03 -0.263959,1.3151 c -0.172617,0.8601 -0.24459,1.3239 -0.207987,1.3408 0.09507,0.043 0.989704,-0.029 1.34457,-0.1076 z m -8.085481,1.0378 c 0,-0.048 1.181837,-5.9697 1.243325,-6.2296 0.02718,-0.1148 0.04912,-0.1196 0.638986,-0.1196 0.557626,0 0.60829,0.012 0.5816,0.092 -0.0728,0.2304 -0.330226,1.6003 -0.305402,1.6251 0.01528,0.016 0.374895,0.027 0.799149,0.029 0.851872,0 1.211141,0.068 1.542491,0.2867 0.498549,0.3301 0.508104,0.6947 0.07389,2.8202 l -0.316065,1.5471 -0.613148,10e-5 h -0.61315 l 0.310518,-1.5472 c 0.269985,-1.3451 0.302978,-1.5735 0.252762,-1.7496 -0.0831,-0.2913 -0.265894,-0.3529 -1.047055,-0.3529 h -0.629143 l -0.363347,1.8248 -0.363345,1.8249 h -0.596031 c -0.351192,0 -0.596031,-0.021 -0.596031,-0.051 z"
       id="path183" /></g></svg>
