<?xml version="1.0" encoding="UTF-8" standalone="no"?>
<!-- Created with Inkscape (http://www.inkscape.org/) -->

<svg
   version="1.1"
   id="svg1"
   width="511.99997"
   height="511.99997"
   viewBox="0 0 511.99997 511.99997"
   xmlns="http://www.w3.org/2000/svg"
   xmlns:svg="http://www.w3.org/2000/svg">
  <defs
     id="defs1">
    <clipPath
       clipPathUnits="userSpaceOnUse"
       id="clipPath2">
      <path
         d="M 0,0 H 1600 V 1600 H 0 Z"
         transform="scale(0.31999999)"
         clip-rule="evenodd"
         id="path2" />
    </clipPath>
    <clipPath
       clipPathUnits="userSpaceOnUse"
       id="clipPath7">
      <path
         d="m 1271.6464,848.6098 h 234.375 v 234.3751 h -234.375 z"
         transform="matrix(1.7951499,0,0,1.7951499,-2242.9957,-1483.5818)"
         clip-rule="evenodd"
         id="path7" />
    </clipPath>
    <clipPath
       clipPathUnits="userSpaceOnUse"
       id="clipPath9">
      <path
         d="m 1271.6464,848.6098 h 234.375 v 234.3751 h -234.375 z"
         transform="matrix(1.7951499,0,0,1.7951499,-2242.9957,-1483.5818)"
         clip-rule="evenodd"
         id="path9" />
    </clipPath>
  </defs>
  <g
     id="g1"
     transform="translate(594.83594,-410.09573)">
    <g
       id="g3"
       transform="translate(-594.83596,399.53574)">
      <path
         id="path1"
         d="M 0,0 H 512 V 512 H 0 Z"
         style="fill:#ffffff;fill-opacity:1;fill-rule:nonzero;stroke:none"
         transform="translate(0,10.56)"
         clip-path="url(#clipPath2)" />
      <g
         id="g2">
        <path
           id="path3"
           d="M 0,0 H 512 V 512 H 0 Z"
           style="fill:#024fa3;fill-opacity:1;fill-rule:nonzero;stroke:none"
           transform="translate(0,10.559993)" />
      </g>
      <path
         style="font-size:131.02px;font-family:Vollkorn;fill:#f4f4f4"
         d="m 25.941961,-82.804643 q -6.28896,0 -9.56446,2.09632 -3.144481,1.9653 -4.585701,5.502841 -1.3102,3.53754 -2.2273397,8.38528 -1.44122,0 -3.2755001,-0.26204 -1.8342801,-0.26204 -3.0134601,-0.91714 1.04816,-5.50284 1.5722401,-11.005681 0.52408,-5.50284 0.52408,-9.95752 3.6685601,0.13102 8.9093598,0.26204 5.371821,0.13102 11.529761,0.13102 6.28896,0 12.97098,0 6.68202,0 12.970981,0 6.41998,0 11.7918,-0.13102 5.37182,-0.13102 8.90936,-0.26204 -0.13102,4.71672 0,9.69548 0.26204,4.978761 0.78612,11.267721 -1.3102,0.6551 -3.01346,1.04816 -1.57224,0.26204 -3.53754,0.13102 -0.13102,-7.73018 -3.66856,-11.791801 -3.40652,-4.19264 -11.1367,-4.19264 z m 6.68202,-2.22734 h 12.31588 v 68.392442 q 0,4.323661 0.78612,6.8130407 0.786121,2.3583601 3.013461,3.4065201 2.22734,0.91714 6.41998,1.17918 0.39306,1.0481601 0.52408,2.4893801 0.13102,1.3102001 0.13102,3.14448011 Q 51.621882,0.13102 47.167202,0 q -4.323661,0 -8.516301,0 -2.75142,0 -5.8959,0 -3.01346,0.13102 -5.8959,0.13102 -2.88244,0.13102001 -5.37182,0.26204001 0,-1.83428001 0.13102,-3.14448011 0.13102,-1.44122 0.52408,-2.4893801 4.19264,-0.26204 6.41998,-1.17918 2.35836,-1.04816 3.14448,-3.4065201 0.91714,-2.4893797 0.91714,-6.8130407 z m 104.420109,68.392442 q 0,6.8130407 1.83428,9.1714008 1.9653,2.22734 5.8959,2.22734 0.39306,1.1791801 0.52408,2.4893801 0.13102,1.3102001 0.13102,3.14448011 Q 142.54693,0.13102 138.87837,0 q -3.66856,0 -7.73018,0 -2.6204,0 -5.50284,0 -2.88244,0.13102 -5.50284,0.13102 -2.48938,0.13102001 -4.5857,0.26204001 0,-1.83428001 0.13102,-3.14448011 0.13102,-1.44122 0.52408,-2.4893801 4.71672,0 6.81304,-2.35836 2.22734,-2.4893798 2.22734,-9.0403808 v -19.91504 q 0,-9.30242 -3.40652,-12.577921 -3.40652,-3.40652 -8.77834,-3.40652 -3.40652,0 -6.81304,2.22734 -3.40652,2.09632 -5.76488,6.944061 -2.227343,4.71672 -2.227343,12.70894 v 14.01914 q 0,6.551001 1.965303,9.0403808 1.9653,2.35836 7.07508,2.35836 0.39306,1.1791801 0.52408,2.4893801 0.13102,1.3102001 0.13102,3.14448011 -1.83428,-0.13102 -4.45468,-0.26204001 -2.6204,0 -5.502843,-0.13102 -2.88244,0 -5.63386,0 -2.6204,0 -5.50284,0 -2.88244,0.13102 -5.50284,0.13102 -2.6204,0.13102001 -4.5857,0.26204001 0,-1.83428001 0.13102,-3.14448011 0.13102,-1.44122 0.52408,-2.4893801 5.10978,0 7.07508,-2.35836 1.9653,-2.4893798 1.9653,-9.0403808 v -25.94196 l 11.7918,-12.839961 q 0,1.57224 -0.13102,3.53754 -0.13102,1.9653 -0.78612,4.19264 0.39306,-0.6551 0.78612,-1.44122 0.39306,-0.91714 1.17918,-1.9653 2.227343,-3.01346 7.075083,-6.15794 4.97876,-3.2755 11.92282,-3.2755 4.97876,0 9.1714,2.09632 4.32366,1.9653 6.94406,6.68202 2.6204,4.5857 2.6204,12.577921 z M 86.470367,-75.336502 q 0,-3.144481 -0.6551,-5.109781 -0.52408,-2.09632 -2.6204,-3.14448 -2.09632,-1.04816 -6.551,-1.04816 0,-1.44122 0.26204,-2.6204 0.26204,-1.17918 0.91714,-2.22734 1.9653,0 5.50284,-0.6551 3.66856,-0.6551 7.07508,-1.70326 3.40652,-1.04816 4.97876,-2.09632 1.17918,0.39306 1.9653,1.57224 0.91714,1.17918 0.91714,3.66856 v 18.211781 h -11.7918 z m 0,0 h 11.7918 v 19.91504 l -11.7918,14.805261 z M 178.57477,1.17918 q -9.30243,0 -15.46037,-4.1926401 -6.15794,-4.1926401 -9.30242,-11.2677199 -3.01346,-7.206101 -3.01346,-15.722401 0,-8.38528 3.2755,-15.46036 3.2755,-7.075081 9.30242,-11.398741 6.15794,-4.32366 14.54323,-4.32366 8.5163,0 13.62608,3.66856 5.2408,3.66856 7.73018,9.8265 2.6204,6.157941 3.14448,13.626081 -0.52408,2.6204 -1.9653,4.45468 -2.22734,0 -6.68202,0 -4.45468,0 -10.08854,0.13102 -5.63386,0 -11.52977,0.26204 -5.8959,0.13102 -11.1367,0.39306 v -6.68202 h 27.77625 q 0,-8.64732 -3.14448,-14.019141 -3.14448,-5.37182 -8.90936,-5.37182 -3.14449,0 -6.15795,1.9653 -3.01346,1.83428 -4.97876,6.68202 -1.9653,4.716721 -1.9653,13.495061 0,6.41998 1.57224,12.57792 1.70326,6.026921 5.76488,10.088541 4.19264,3.9305998 11.79181,3.9305998 4.32366,0 8.5163,-1.9653001 4.19264,-1.9652997 7.46814,-5.6338597 1.04816,0.52408 1.9653,1.83428 1.04816,1.17918 1.17918,2.2273397 -4.45468,5.8959002 -10.35058,8.3852803 -5.76488,2.48938 -12.97098,2.48938 z m 53.5842,-90.141763 q 2.6204,0.13102 6.28896,0.26204 3.79958,0.13102 7.33712,0.13102 3.14448,0 6.28896,0 3.14448,-0.13102 6.28896,-0.13102 3.14448,-0.13102 6.15794,-0.13102 7.59916,0 13.88812,1.57224 6.28896,1.57224 10.08854,5.76488 3.9306,4.06162 3.9306,11.791801 0,8.38528 -5.10978,14.4122 -5.10978,5.8959 -13.88812,7.2061 6.94406,0.39306 12.70894,2.620401 5.8959,2.09632 9.43344,6.81304 3.53754,4.71672 3.53754,12.83996 0,7.07508 -3.2755,12.970981 -3.14448,5.8958998 -10.08854,9.4334399 Q 278.80209,0 267.66539,0 q -3.66856,0 -8.77834,0 -4.97876,0 -10.21956,0 -5.2408,0.13102 -9.69548,0.13102 -4.45468,0.13102001 -6.94406,0.26204001 0,-1.83428001 0.13102,-3.14448011 0.13102,-1.44122 0.52408,-2.4893801 3.53754,-0.26204 5.50284,-1.3102 1.9653,-1.04816 2.75142,-3.6685598 0.91714,-2.75142 0.91714,-7.861201 v -53.849221 q 0,-4.45468 -0.78612,-6.813041 -0.78612,-2.35836 -2.75142,-3.40652 -1.9653,-1.04816 -5.50284,-1.17918 -0.39306,-1.04816 -0.52408,-2.48938 -0.13102,-1.57224 -0.13102,-3.14448 z m 22.01136,4.97876 v 65.903062 q 0,5.371821 0.91714,8.1232407 1.04816,2.6204001 3.66856,3.5375401 2.75142,0.78612 7.59916,0.78612 9.69548,0 14.15016,-4.8477398 4.5857,-4.978761 4.5857,-13.495061 0,-6.15794 -2.48938,-9.95752 -2.48938,-3.9306 -6.68202,-5.8959 -4.06162,-2.09632 -9.04038,-2.88244 -4.84774,-0.78612 -9.69548,-0.78612 h -4.5857 v -5.633861 h 5.63386 q 8.5163,0 12.97098,-2.35836 4.45468,-2.35836 6.15794,-6.15794 1.70326,-3.9306 1.70326,-8.12324 0,-6.81304 -3.14448,-10.4816 -3.01346,-3.799581 -7.59916,-5.240801 -4.45468,-1.57224 -8.77834,-1.57224 -1.70326,0 -3.40652,0.26204 -1.57224,0.13102 -3.79958,0.78612 z M 334.74464,1.17918 q -9.30242,0 -15.46036,-4.1926401 -6.15794,-4.1926401 -9.30242,-11.2677199 -3.01346,-7.206101 -3.01346,-15.722401 0,-8.38528 3.2755,-15.46036 3.2755,-7.075081 9.30242,-11.398741 6.15794,-4.32366 14.54322,-4.32366 8.5163,0 13.62608,3.66856 5.2408,3.66856 7.73018,9.8265 2.6204,6.157941 3.14448,13.626081 -0.52408,2.6204 -1.9653,4.45468 -2.22734,0 -6.68202,0 -4.45468,0 -10.08854,0.13102 -5.63386,0 -11.52976,0.26204 -5.8959,0.13102 -11.1367,0.39306 v -6.68202 h 27.77624 q 0,-8.64732 -3.14448,-14.019141 -3.14448,-5.37182 -8.90936,-5.37182 -3.14448,0 -6.15794,1.9653 -3.01346,1.83428 -4.97876,6.68202 -1.9653,4.716721 -1.9653,13.495061 0,6.41998 1.57224,12.57792 1.70326,6.026921 5.76488,10.088541 4.19264,3.9305998 11.7918,3.9305998 4.32366,0 8.5163,-1.9653001 4.19264,-1.9652997 7.46814,-5.6338597 1.04816,0.52408 1.9653,1.83428 1.04816,1.17918 1.17918,2.2273397 -4.45468,5.8959002 -10.35058,8.3852803 -5.76488,2.48938 -12.97098,2.48938 z m 71.01075,-57.779822 q -0.13102,3.14448 -0.26204,6.68202 0,3.53754 0.52408,6.944061 -1.3102,0.78612 -3.01346,1.17918 -1.70326,0.39306 -3.53754,0.39306 -0.26204,-3.66856 -2.22734,-6.944061 -1.83428,-3.2755 -4.97876,-5.37182 -3.14448,-2.09632 -7.46814,-2.09632 -4.06162,0 -6.551,1.9653 -2.35836,1.9653 -2.35836,5.2408 0,2.22734 0.91714,3.930601 1.04816,1.70326 4.32366,3.66856 3.40652,1.83428 10.35058,4.5857 7.07508,2.6204 11.1367,5.2408 4.06162,2.6204 5.76488,5.8959 1.70326,3.2755 1.70326,7.99222 0,5.502841 -3.14448,9.6954808 -3.14448,4.1926401 -8.64732,6.5510002 -5.37182,2.22734 -12.18486,2.22734 -7.8612,0 -12.57792,-1.17918 -4.5857,-1.3102 -9.04038,-3.6685601 0.26204,-2.0963201 0.26204,-5.1097802 0.13102,-3.0134597 0.13102,-6.0269197 0,-3.013461 -0.26204,-5.109781 1.04816,-0.78612 2.88244,-1.04816 1.9653,-0.39306 3.9306,-0.39306 1.04816,8.254261 5.10978,12.3158807 4.06162,4.0616201 10.87466,4.0616201 5.37182,0 8.25426,-2.35836 3.01346,-2.3583601 3.01346,-6.0269198 0,-2.358361 -1.17918,-4.061621 -1.04816,-1.70326 -4.06162,-3.40652 -3.01346,-1.70326 -8.90936,-4.06162 -7.07508,-2.88244 -11.39874,-5.37182 -4.19264,-2.48938 -6.15794,-5.8959 -1.83428,-3.40652 -1.83428,-8.64732 0,-4.192641 2.09632,-7.206101 2.09632,-3.14448 5.37182,-5.10978 3.40652,-2.09632 7.2061,-3.01346 3.79958,-1.04816 7.07508,-1.04816 5.8959,0 10.35058,1.17918 4.45468,1.17918 8.5163,3.40652 z M 437.98425,1.17918 q -7.73018,0 -11.52976,-3.9306001 -3.66856,-4.0616201 -3.66856,-12.9709809 v -35.506421 q -1.9653,-0.6551 -4.06162,-1.04816 -2.09632,-0.52408 -5.37182,-0.6551 0,-1.70326 0.26204,-2.88244 0.26204,-1.3102 0.91714,-2.88244 h 8.25426 v -17.29464 q 2.6204,-0.6551 5.10978,-2.096321 2.6204,-1.44122 4.5857,-3.14448 1.3102,0.52408 1.70326,1.57224 0.39306,1.04816 0.39306,5.240801 v 15.7224 h 17.0326 q 0,1.3102 -0.26204,2.88244 -0.26204,1.44122 -0.91714,2.88244 -4.71672,0.13102 -8.64732,0.6551 -3.9306,0.39306 -7.2061,1.04816 v 32.755001 q 0,4.323661 0.91714,7.206101 0.91714,2.7514197 2.6204,4.0616198 1.70326,1.3102 4.06162,1.3102 2.75142,0 4.71672,-0.78612 2.09632,-0.78612 3.9306,-2.3583601 1.70326,1.9653001 1.9653,4.3236601 -2.09632,2.4893801 -6.41998,4.19264018 Q 442.17689,1.17918 437.98425,1.17918 Z"
         id="text4"
         transform="matrix(1.024,0,0,1.024,21.71821,247.10398)"
         aria-label="The Best" />
      <g
         id="g6">
        <path
           style="font-style:italic;font-size:131.02px;font-family:Vollkorn;fill:#f4f4f4"
           d="m 52.014942,-88.962583 q 8.25426,0 14.4122,2.75142 6.15794,2.75142 9.04038,8.12324 3.013461,5.371821 1.441221,13.495061 -1.048161,5.76488 -4.323661,10.35058 -3.2755,4.5857 -9.04038,7.73018 -5.63386,3.144481 -14.4122,4.716721 l -10.088541,1.83428 q -2.35836,0.13102 -4.45468,0.13102 -2.09632,-0.13102 -3.66856,-0.26204 l 0.52408,-6.288961 q 1.83428,0.26204 3.40652,0.393061 1.57224,0 3.01346,0 7.73018,0 13.102001,-2.227341 5.37182,-2.22734 8.5163,-6.15794 3.2755,-4.06162 4.32366,-9.43344 1.9653,-9.95752 -2.6204,-14.674241 -4.45468,-4.84774 -12.57792,-4.84774 -2.22734,0 -5.240801,0.39306 -2.88244,0.26204 -5.2408,0.91714 l 0.91714,-2.35836 -11.66078,68.392442 q -0.6551,4.323661 -0.39306,6.5510007 0.26204,2.0963201 1.9653,2.8824401 1.70326,0.78612 4.84774,1.3102 0.26204,1.3102001 0.26204,2.7514201 0.13102,1.4412201 0,2.88244011 Q 30.789701,0.13102 28.431341,0 q -2.35836,0 -4.5857,0 -2.09632,0 -4.97876,0 Q 14.4122,0 11.00568,0 7.5991602,0.13102 3.7995801,0.39306001 q 0,-1.44122001 0.26204,-2.88244011 0.26204,-1.44122 0.7861201,-2.7514201 3.7995801,-0.39306 5.7648798,-1.57224 1.9653,-1.1791801 2.88244,-3.6685598 1.04816,-2.48938 1.83428,-6.813041 l 9.564461,-55.290441 q 0.6551,-3.79958 0.13102,-6.026921 -0.52408,-2.22734 -2.48938,-3.2755 -1.9653,-1.04816 -5.63386,-1.44122 -0.26204,-1.44122 -0.26204,-2.75142 0,-1.44122 0.13102,-2.88244 4.84774,0.26204 8.5163,0.39306 3.66856,0 8.25426,0 4.97876,0 10.21956,-0.13102 5.371821,-0.26204 8.254261,-0.26204 z m -5.10978,43.891702 q 2.88244,3.40652 4.97876,6.68202 2.09632,3.14448 4.19264,7.46814 2.22734,4.19264 4.84774,11.00568 2.22734,5.502841 4.32366,7.861201 2.09632,2.3583597 3.79958,2.3583597 1.3102,0 2.22734,-0.3930597 0.91714,-0.39306 2.22734,-1.70326 1.3102,0.6551 2.22734,1.70326 1.048161,1.0481597 1.703261,2.4893798 -3.406521,4.1926401 -6.944061,6.5510002 -3.40652,2.22734 -8.25426,2.22734 -3.66856,0 -6.02692,-1.96530003 -2.35836,-1.96530007 -3.9306,-5.63386017 -1.57224,-3.6685598 -3.14448,-8.7783398 -1.9653,-6.419981 -4.061621,-11.398741 -2.09632,-4.97876 -4.5857,-9.1714 -2.35836,-4.19264 -5.2408,-8.25426 z M 96.558709,1.17918 q -5.63386,0 -8.90936,-2.7514201 -3.14448,-2.75142 -4.5857,-7.2061002 -1.3102,-4.4546797 -1.17918,-9.6954807 0.13102,-5.37182 1.17918,-10.4816 2.22734,-11.00568 6.94406,-18.080761 4.71672,-7.2061 10.612621,-10.61262 6.02692,-3.53754 11.92282,-3.53754 5.10978,0 8.12324,2.22734 3.14448,2.09632 4.19264,5.50284 1.04816,3.2755 0.26204,6.81304 -0.91714,4.323661 -4.32366,7.992221 -3.40652,3.53754 -8.12324,6.15794 -4.5857,2.6204 -9.56446,4.19264 -4.978761,1.44122 -9.171401,1.70326 l 0.39306,-4.84774 q 7.337121,-0.52408 13.102001,-3.9306 5.76488,-3.40652 7.07508,-9.56446 0.78612,-4.061621 -0.6551,-6.813041 -1.44122,-2.75142 -4.71672,-2.75142 -4.19264,0 -8.25426,5.63386 -3.930601,5.633861 -5.895901,17.294641 -0.91714,5.37182 -0.78612,10.87466 0.13102,5.371821 2.22734,8.909361 2.09632,3.5375397 7.075081,3.5375397 3.14448,0 6.551,-1.70326 3.40652,-1.7032597 6.68202,-5.6338607 1.04816,0.655101 1.70326,1.572241 0.6551,0.91714 1.04816,2.22734 -4.06162,5.5028398 -9.8265,9.3024199 Q 103.89583,1.17918 96.558709,1.17918 Z m 44.020971,0 q -5.8959,0 -9.30242,-2.7514201 -3.40652,-2.88244 -4.84774,-7.5991602 -1.3102,-4.7167197 -1.17918,-10.3505807 0.26204,-5.76488 1.57224,-11.52976 1.44122,-6.41998 4.06162,-11.92282 2.6204,-5.502841 6.28896,-9.564461 3.79958,-4.06162 8.64732,-6.28896 4.97876,-2.35836 11.26772,-2.35836 3.53754,0 6.81304,0.78612 3.2755,0.78612 5.37182,2.35836 -1.04816,3.2755 -1.83428,6.94406 -0.78612,3.66856 -1.17918,7.206101 -2.48938,1.17918 -6.28896,0.52408 0.52408,-6.551001 -1.17918,-8.909361 -1.57224,-2.48938 -5.10978,-2.48938 -4.71672,0 -7.8612,3.2755 -3.01346,3.2755 -4.84774,8.385281 -1.70326,4.97876 -2.6204,10.35058 -0.6551,4.06162 -0.91714,8.5163 -0.26204,4.32366 0.39306,8.12324 0.78612,3.668561 2.88244,6.026921 2.22734,2.2273397 6.28896,2.2273397 3.79958,0 7.46814,-2.09632 3.66856,-2.0963197 6.81304,-5.5028407 1.04816,0.655101 1.57224,1.572241 0.6551,0.91714 1.17918,2.09632 -5.2408,6.8130398 -11.52976,9.9575199 Q 146.34456,1.17918 140.57968,1.17918 Z m 49.65489,-62.365522 q 2.09632,0.6551 2.6204,2.75142 0.6551,1.9653 0,5.63386 -0.52408,3.2755 -2.09632,7.599161 -1.44122,4.32366 -3.66856,9.69548 h 0.26204 l 2.22734,-4.84774 q 3.01346,-6.157941 5.76488,-10.874661 2.88244,-4.71672 6.02692,-7.33712 3.14448,-2.6204 6.94407,-2.6204 3.79958,0 6.68202,2.35836 -1.17918,3.66856 -1.9653,7.59916 -0.78612,3.9306 -1.17918,7.599161 -1.17918,0.52408 -2.88244,0.91714 -1.57224,0.26204 -3.53754,0.13102 0.26204,-4.585701 -0.13102,-6.026921 -0.39306,-1.57224 -1.31021,-1.57224 -1.3102,0 -3.79958,2.6204 -2.35836,2.489381 -5.63386,8.647321 -2.09632,4.06162 -5.10978,11.52976 -2.88244,7.33712 -4.45468,15.722401 L 182.76643,0 h -12.05384 l 7.33712,-38.126821 q 1.17918,-6.15794 1.17918,-8.778341 0.13102,-2.6204 -1.70326,-3.2755 -1.70326,-0.6551 -5.8959,-0.6551 0,-1.44122 0.13102,-2.75142 0.26204,-1.3102 0.78612,-2.22734 2.09632,-0.26204 5.50284,-1.04816 3.53754,-0.91714 6.94406,-2.09632 3.40652,-1.3102 5.2408,-2.22734 z M 226.91839,1.17918 q -4.45468,0 -6.68202,-2.7514201 -2.09632,-2.75142 -2.6204,-7.2061002 -0.39306,-4.5856997 0.39306,-9.9575207 0.78612,-5.50284 2.09632,-10.74364 1.9653,-7.8612 2.75142,-12.18486 0.91714,-4.454681 0.52408,-6.288961 -0.39306,-1.9653 -2.09632,-2.35836 -1.70326,-0.52408 -4.97876,-0.52408 -0.13102,-1.17918 0,-2.48938 0.13102,-1.44122 0.6551,-2.48938 1.9653,-0.26204 5.37182,-1.04816 3.53754,-0.91714 6.94406,-2.09632 3.40652,-1.3102 5.10978,-2.22734 1.44122,0.91714 2.09632,2.09632 0.78612,1.04816 0.52408,4.06162 -0.13102,3.01346 -1.57224,9.302421 -1.3102,6.15794 -3.9306,17.16362 -1.57224,6.551 -1.9653,11.1367 -0.26204,4.454681 0.78612,6.682021 1.17918,2.2273397 3.40652,2.2273397 2.48938,0 6.81304,-3.7995797 4.32366,-3.930601 8.64732,-11.791801 4.32366,-7.99222 6.551,-20.04606 l 3.01346,-15.853421 h 11.92282 l -6.41998,32.492961 q -1.83428,9.1714 -2.48938,13.364041 -0.6551,4.1926397 -0.26204,5.2407997 0.52408,1.04816 1.9653,1.04816 2.35836,0 6.41998,-4.0616197 0.91714,0.78612 1.44122,1.9652997 0.6551,1.04816 1.04816,2.22734 -3.14448,3.6685602 -7.2061,6.2889603 -3.9306,2.6204 -7.46814,2.6204 -3.9306,0 -6.02692,-1.83428002 -2.09632,-1.96530008 -2.6204,-5.24080018 -0.39306,-3.2755001 0.39306,-7.5991598 0.26204,-1.57224 0.78612,-3.144481 0.52408,-1.57224 1.3102,-3.14448 h -0.26204 q -1.57224,3.2755 -4.19264,6.944061 -2.48938,3.5375397 -5.76488,6.8130398 -3.2755,3.1444801 -6.94406,5.24080017 Q 230.71797,1.17918 226.91839,1.17918 Z m 58.30144,0 q -4.32366,0 -6.41998,-2.35836 -2.09632,-2.3583601 -2.22734,-6.5510003 -0.13102,-4.3236597 1.44122,-9.9575207 l 5.37182,-18.86688 q 1.9653,-6.68202 2.22734,-9.695481 0.39306,-3.01346 -1.44122,-3.79958 -1.70326,-0.78612 -6.02692,-0.78612 -0.13102,-1.44122 0,-2.6204 0.26204,-1.3102 0.78612,-2.35836 2.09632,-0.26204 4.97876,-1.17918 3.01346,-0.91714 5.76488,-2.09632 2.75142,-1.17918 4.32366,-2.09632 4.06162,1.70326 4.84774,5.76488 0.91714,3.9306 -1.3102,12.053841 l -7.2061,25.28686 q -1.83428,6.419981 -1.57224,8.2542607 0.39306,1.83428 2.22734,1.83428 1.3102,0 3.01346,-0.91714 1.83428,-0.91714 3.79958,-2.8824397 1.04816,0.6551 1.57224,1.70326 0.6551,1.0481597 0.78612,2.4893798 -3.79958,4.0616201 -7.59916,6.4199802 -3.66856,2.35836 -7.33712,2.35836 z m 11.39874,-76.777722 q -3.14448,0 -4.71672,-2.096321 -1.44122,-2.22734 -0.78612,-5.63386 0.78612,-3.66856 3.14448,-5.76488 2.35836,-2.22734 5.37182,-2.22734 3.2755,0 4.84774,2.22734 1.57224,2.09632 0.78612,5.76488 -0.6551,3.40652 -3.01346,5.63386 -2.35836,2.096321 -5.63386,2.096321 z M 319.80789,1.17918 q -5.50284,0 -8.5163,-2.7514201 -2.88244,-2.88244 -3.2755,-8.7783399 -0.39306,-5.895901 1.70326,-15.329341 l 7.8612,-34.327241 q 1.44122,-6.02692 2.35836,-10.61262 0.91714,-4.71672 1.04816,-7.468141 2.6204,-0.39306 5.50284,-1.17918 3.01346,-0.91714 4.84774,-1.9653 1.04816,0.52408 1.44122,1.83428 0.39306,1.3102 0,4.585701 -0.39306,3.14448 -1.9653,9.69548 l -9.04038,38.519881 q -1.57224,7.2061 -1.70326,11.529761 0,4.32366 1.3102,6.2889597 1.3102,1.8342801 3.40652,1.8342801 2.22734,0 4.84774,-1.7032601 2.75142,-1.7032597 4.84774,-4.1926397 1.04816,0.52408 1.83428,1.83428 0.78612,1.1791797 0.91714,2.3583597 -1.70326,2.2273401 -4.5857,4.5857002 -2.75142,2.22734 -6.02692,3.79958009 Q 323.34543,1.17918 319.80789,1.17918 Z m -2.75142,-53.849222 q -2.48938,-0.26204 -5.37182,-0.52408 -2.88244,-0.39306 -5.50284,-0.39306 0,-1.44122 0.39306,-2.75142 0.39306,-1.44122 1.04816,-2.35836 h 10.4816 z m 9.95752,0.13102 1.04816,-6.15794 h 16.11546 q 0,1.3102 -0.26204,2.75142 -0.13102,1.3102 -0.6551,2.35836 -5.76488,0 -9.69548,0.39306 -3.9306,0.26204 -6.551,0.6551 z"
           id="text6"
           transform="matrix(1.024,0,0,1.024,21.718212,353.59997)"
           aria-label="Recruit" />
      </g>
      <path
         id="path6"
         d="m 241.14,58.900002 c 14.21001,6.050003 30.03999,-19.059998 46.12001,-5.040001 L 300.62,65.510002 c 11.64001,10.150002 34.45999,-8.84 45.41998,9.459999 L 355.14996,90.18 c 7.93,13.25 35.5,2.239998 40.26999,23.04 l 3.97,17.28 c 3.45002,15.05 33.08002,13.10001 31.19001,34.36 l -1.57001,17.66 c -1.37,15.38001 27.41,22.68001 19.04001,42.31 l -6.95001,16.31 c -6.04999,14.21001 19.05999,30.03999 5.04,46.12001 L 434.48996,300.63 c -10.14999,11.64002 8.84,34.46 -9.45999,45.41999 l -15.20999,9.10998 c -13.25,7.94001 -2.23999,35.5 -23.04001,40.26999 l -17.28,3.95999 c -15.04999,3.45002 -13.10001,33.08002 -34.36002,31.19001 l -17.66,-1.57001 c -15.38,-1.37 -22.67999,27.41 -42.31,19.04001 l -16.31,-6.95001 c -14.21,-6.04999 -30.04,19.05999 -46.11999,5.04 l -13.36,-11.64999 c -11.64,-10.14999 -34.46001,8.84 -45.42,-9.45999 l -9.11,-15.20999 c -7.93001,-13.25 -35.5,-2.23999 -40.27,-23.04001 l -3.97,-17.28 C 97.159958,354.44998 67.529953,356.39996 69.419952,335.13995 l 1.57,-17.66 c 1.370003,-15.38 -27.41,-22.67999 -19.040001,-42.31 l 6.950001,-16.31 c 6.049999,-14.21 -19.060001,-30.04 -5.040001,-46.11999 l 11.649998,-13.36 c 10.150001,-11.64 -8.84,-34.46001 9.459999,-45.42 l 15.209999,-9.11 c 13.250003,-7.93001 2.239998,-35.5 23.040003,-40.27 l 17.28,-3.97 c 15.05001,-3.450002 13.10001,-33.080007 34.36,-31.190008 l 17.66001,1.57 c 15.38,1.370003 22.67999,-27.41 42.31,-19.040001 z"
         style="fill:#fefeff;fill-opacity:1;fill-rule:evenodd;stroke:none"
         transform="matrix(0.17825809,0,0,0.17825809,399.83213,275.02045)"
         clip-path="url(#clipPath7)" />
      <path
         id="path8"
         d="M 351.92001,164.32001 365.15002,177.55 c 1.9,1.9 1.9,5 0,6.9 L 213.92,335.67999 l -0.09,0.09 -0.09,0.09 -0.09,0.08 -0.09,0.08 -0.1,0.08 -0.10001,0.07 -0.10001,0.07 -0.1,0.07 -0.10001,0.07 -0.1,0.06 -0.10001,0.06 -0.11,0.06 -0.11,0.05 -0.11,0.05 -0.11,0.05 -0.11,0.05 -0.11,0.04 -0.11,0.04 -0.11,0.04 -0.11001,0.04 -0.11,0.03 -0.11,0.03 -0.11999,0.03 -0.11,0.02 -0.12,0.02 -0.11999,0.02 -0.12,0.01 -0.11999,0.01 -0.12,0.01 -0.11999,0.01 h -0.12 -0.11999 -0.12 -0.11999 l -0.12,-0.01 -0.11999,-0.01 -0.12,-0.01 -0.11999,-0.02 -0.12,-0.02 -0.11,-0.02 -0.11,-0.02 -0.12,-0.03 -0.11,-0.03 -0.11,-0.03 -0.11,-0.03 -0.11,-0.04 -0.11,-0.04 -0.11,-0.04 -0.11,-0.05 -0.11,-0.05 -0.11,-0.05 -0.11,-0.05 -0.10001,-0.06 c -0.07,-0.04 -0.14,-0.08 -0.21,-0.12 -0.31,-0.19 -0.60001,-0.42001 -0.87,-0.69 l -13.22,-13.23001 -0.03,-0.03 L 134.85004,263.53 c -1.9,-1.9 -1.9,-5 0,-6.9 l 13.22,-13.22999 c 1.89999,-1.89999 5,-1.89999 6.89999,0 l 55.49001,55.49 134.55,-134.55 c 1.90997,-1.91002 5.00995,-1.91002 6.90997,-0.02"
         style="fill:#024fa3;fill-opacity:1;fill-rule:evenodd;stroke:none"
         transform="matrix(0.17825809,0,0,0.17825809,399.83213,275.02045)"
         clip-path="url(#clipPath9)" />
      <g
         id="g9">
        <path
           id="path10"
           d="m 305.19513,132.05855 h 56.19508 v 56.19508 h -56.19508 z"
           style="fill:#000000;fill-opacity:0;fill-rule:nonzero;stroke:none"
           transform="matrix(1.3333333,0,0,-1.3333333,0,533.11997)" />
      </g>
      <g
         id="g4" />
      <g
         id="g5" />
    </g>
  </g>
</svg>
